<?xml version="1.0" encoding="UTF-8" standalone="no"?>
<!DOCTYPE svg PUBLIC "-//W3C//DTD SVG 20010904//EN" "http://www.w3.org/TR/2001/REC-SVG-20010904/DTD/svg10.dtd">
<!-- Created with Sodipodi ("http://www.sodipodi.com/") -->
<svg id="svg548" sodipodi:version="0.32" width="400pt" height="400pt" sodipodi:docbase="/home/nicu/svg_gal/people" sodipodi:docname="/home/nicu/svg_gal/people/woman01.svg" xmlns="http://www.w3.org/2000/svg" xmlns:sodipodi="http://sodipodi.sourceforge.net/DTD/sodipodi-0.dtd" xmlns:xlink="http://www.w3.org/1999/xlink">
  <defs id="defs550"/>
  <sodipodi:namedview id="base" showgrid="true"/>
  <path sodipodi:type="arc" style="fill-rule: evenodd; stroke: none; fill: rgb(0, 0, 0); fill-opacity: 1; stroke-opacity: 1; stroke-width: 1pt; stroke-linejoin: miter; stroke-linecap: butt;" id="path2040" d="M 318.869354 89.945183 A 66.011551 62.095604 0 1 0 186.846252,89.945183 A 66.0116 62.0956 0 1 0 318.869 89.9452 L 252.857803 89.945183 z" sodipodi:cx="252.857803" sodipodi:cy="89.945183" sodipodi:rx="66.011551" sodipodi:ry="62.095604" transform="translate(-11.1884, -13.4261)"/>
  <rect style="fill: rgb(0, 0, 0); fill-rule: evenodd; stroke-width: 1pt; stroke: none; stroke-opacity: 1; fill-opacity: 1;" id="rect2041" width="106.289795" height="118.612915" x="195.796997" y="153.159708"/>
  <rect style="fill: rgb(0, 0, 0); fill-rule: evenodd; stroke-width: 1pt; stroke: none; stroke-opacity: 1; fill-opacity: 1;" id="rect2044" width="49.228967" height="158.875244" x="195.796957" y="325.460999"/>
  <rect style="fill: rgb(0, 0, 0); fill-rule: evenodd; stroke-width: 1pt; stroke: none; stroke-opacity: 1; fill-opacity: 1;" id="rect2045" width="46.991291" height="157.756409" x="253.976648" y="326.579834"/>
  <g id="g2047" style="stroke: none; stroke-opacity: 1; fill: rgb(0, 0, 0); fill-opacity: 1;">
    <rect style="fill: rgb(0, 0, 0); fill-rule: evenodd; stroke-width: 1pt; stroke: none; stroke-opacity: 1; fill-opacity: 1;" id="rect2043" width="39.159393" height="133.141937" x="137.617306" y="181.130646"/>
    <path style="fill: rgb(0, 0, 0); fill-rule: evenodd; stroke: none; stroke-opacity: 1; stroke-width: 1pt; stroke-linejoin: miter; stroke-linecap: butt; fill-opacity: 1;" d="M 175.658 181.131 C 175.658 181.131 185.727 169.942 195.797 172.18 C 205.867 174.418 195.797 153.159 195.797 153.159 L 161.113 156.516 C 146.556 164.324 146.164 164.671 141.724 169.942 C 138.367 175.536 137.617 183.368 137.617 183.368 L 175.658 181.131 z " id="path2046" sodipodi:nodetypes="ccccccc"/>
  </g>
  <g id="g2050" transform="matrix(-1, 0, 0, 1, 496.64, 0)" style="stroke: none; stroke-opacity: 1; fill: rgb(0, 0, 0); fill-opacity: 1;">
    <rect style="fill: rgb(0, 0, 0); fill-rule: evenodd; stroke-width: 1pt; stroke: none; stroke-opacity: 1; fill-opacity: 1;" id="rect2051" width="39.159393" height="133.141937" x="137.617306" y="181.130646"/>
    <path style="fill: rgb(0, 0, 0); fill-rule: evenodd; stroke: none; stroke-opacity: 1; stroke-width: 1pt; stroke-linejoin: miter; stroke-linecap: butt; fill-opacity: 1;" d="M 175.658 181.131 C 175.658 181.131 185.727 169.942 195.797 172.18 C 205.867 174.418 195.797 153.159 195.797 153.159 L 161.113 156.516 C 146.556 164.324 146.164 164.671 141.724 169.942 C 138.367 175.536 137.617 183.368 137.617 183.368 L 175.658 181.131 z " id="path2052" sodipodi:nodetypes="ccccccc"/>
  </g>
  <path style="fill: rgb(0, 0, 0); fill-rule: evenodd; stroke: black; stroke-opacity: 1; stroke-width: 1pt; stroke-linejoin: miter; stroke-linecap: butt; fill-opacity: 1;" d="M 195 326.25 L 140 395 L 356.25 395 L 298.75 326.25 L 195 326.25 z " id="path2053" transform="matrix(1, 0, 0, 1.96364, 0, -363.136)"/>

  <rdf:RDF xmlns="http://web.resource.org/cc/" xmlns:dc="http://purl.org/dc/elements/1.1/" xmlns:rdf="http://www.w3.org/1999/02/22-rdf-syntax-ns#">
  <Work rdf:about="">
    <dc:title>Clipart by Nicu Buculei - head1</dc:title>
    <dc:rights>
       <Agent>
         <dc:title>Nicu Buculei</dc:title>
       </Agent>
    </dc:rights>
    <dc:type rdf:resource="http://purl.org/dc/dcmitype/StillImage"/>
    <license rdf:resource="http://web.resource.org/cc/PublicDomain"/>
  </Work>
   
  <License rdf:about="http://web.resource.org/cc/PublicDomain">
     <permits rdf:resource="http://web.resource.org/cc/Reproduction"/>
     <permits rdf:resource="http://web.resource.org/cc/Distribution"/>
     <permits rdf:resource="http://web.resource.org/cc/DerivativeWorks"/>
  </License>

</rdf:RDF>
</svg>