<?xml version="1.0" encoding="UTF-8" standalone="no"?>
<!-- Created with Inkscape (http://www.inkscape.org/) -->
<svg
   xmlns:svg="http://www.w3.org/2000/svg"
   xmlns="http://www.w3.org/2000/svg"
   xmlns:xlink="http://www.w3.org/1999/xlink"
   version="1.0"
   width="128"
   height="128"
   id="svg2108">
  <defs
     id="defs3">
    <linearGradient
       id="linearGradient4356">
      <stop
         id="stop4358"
         style="stop-color:#000000;stop-opacity:1"
         offset="0" />
      <stop
         id="stop4360"
         style="stop-color:#000000;stop-opacity:0"
         offset="1" />
    </linearGradient>
    <linearGradient
       id="linearGradient4163">
      <stop
         id="stop4165"
         style="stop-color:#3b74bc;stop-opacity:1"
         offset="0" />
      <stop
         id="stop4167"
         style="stop-color:#2d5990;stop-opacity:1"
         offset="1" />
    </linearGradient>
    <linearGradient
       id="linearGradient3824">
      <stop
         id="stop3826"
         style="stop-color:#ffffff;stop-opacity:1"
         offset="0" />
      <stop
         id="stop3828"
         style="stop-color:#c9c9c9;stop-opacity:1"
         offset="1" />
    </linearGradient>
    <linearGradient
       id="linearGradient3816">
      <stop
         id="stop3818"
         style="stop-color:#000000;stop-opacity:1"
         offset="0" />
      <stop
         id="stop3820"
         style="stop-color:#000000;stop-opacity:0"
         offset="1" />
    </linearGradient>
    <linearGradient
       id="linearGradient3800">
      <stop
         id="stop3802"
         style="stop-color:#f4d9b1;stop-opacity:1"
         offset="0" />
      <stop
         id="stop3804"
         style="stop-color:#df9725;stop-opacity:1"
         offset="1" />
    </linearGradient>
    <radialGradient
       cx="31.112698"
       cy="19.008621"
       r="8.6620579"
       fx="31.112698"
       fy="19.008621"
       id="radialGradient2468"
       xlink:href="#linearGradient3816"
       gradientUnits="userSpaceOnUse"
       gradientTransform="matrix(5.1479827,0,0,1.6932259,-96.037255,70.585083)" />
    <linearGradient
       x1="22.686766"
       y1="36.3904"
       x2="21.408455"
       y2="35.739632"
       id="linearGradient2487"
       xlink:href="#linearGradient4356"
       gradientUnits="userSpaceOnUse"
       gradientTransform="matrix(-2.8347379,0.6090996,0.6090996,2.8347379,134.07039,-29.845765)" />
    <linearGradient
       x1="20.661695"
       y1="35.817974"
       x2="22.626925"
       y2="36.217758"
       id="linearGradient2490"
       xlink:href="#linearGradient4356"
       gradientUnits="userSpaceOnUse"
       gradientTransform="matrix(2.8512357,0.5265033,-0.5265033,2.8512357,-7.64805,-26.094637)" />
    <radialGradient
       cx="29.344931"
       cy="17.064077"
       r="9.1620579"
       fx="29.344931"
       fy="17.064077"
       id="radialGradient2494"
       xlink:href="#linearGradient3800"
       gradientUnits="userSpaceOnUse"
       gradientTransform="matrix(2.2847521,0,0,2.2847521,-7.6785425,-7.9177846)" />
    <radialGradient
       cx="31.112698"
       cy="19.008621"
       r="8.6620579"
       fx="31.112698"
       fy="19.008621"
       id="radialGradient2497"
       xlink:href="#linearGradient3816"
       gradientUnits="userSpaceOnUse"
       gradientTransform="matrix(2.8994389,0,0,2.8994389,-26.078956,-8.258837)" />
    <linearGradient
       x1="30.935921"
       y1="29.553486"
       x2="30.935921"
       y2="35.803486"
       id="linearGradient2503"
       xlink:href="#linearGradient3824"
       gradientUnits="userSpaceOnUse"
       gradientTransform="matrix(2.8994389,0,0,2.8994389,-25.716526,-18.406873)" />
    <radialGradient
       cx="28.089741"
       cy="27.203083"
       r="13.56536"
       fx="28.089741"
       fy="27.203083"
       id="radialGradient2506"
       xlink:href="#linearGradient4163"
       gradientUnits="userSpaceOnUse"
       gradientTransform="matrix(3.7622075,0,0,2.5655134,-49.9515,-4.0822851)" />
    <linearGradient
       x1="22.686766"
       y1="36.3904"
       x2="21.408455"
       y2="35.739632"
       id="linearGradient2509"
       xlink:href="#linearGradient4356"
       gradientUnits="userSpaceOnUse"
       gradientTransform="matrix(-2.8347379,0.6090996,0.6090996,2.8347379,95.49672,-50.644748)" />
    <linearGradient
       x1="30.935921"
       y1="29.553486"
       x2="30.935921"
       y2="35.803486"
       id="linearGradient2512"
       xlink:href="#linearGradient3824"
       gradientUnits="userSpaceOnUse"
       gradientTransform="matrix(2.8994389,0,0,2.8994389,-61.721439,-38.702945)" />
  </defs>
  <g
     id="g2514">
    <g
       id="layer1"
       style="display:inline" />
    <path
       d="M 108.7225,102.77097 C 108.72998,110.87297 88.763216,117.44225 64.130371,117.44225 C 39.497531,117.44225 19.530766,110.87297 19.538251,102.77097 C 19.530766,94.668971 39.497531,88.099695 64.130371,88.099695 C 88.763216,88.099695 108.72998,94.668971 108.7225,102.77097 L 108.7225,102.77097 z"
       id="path4306"
       style="fill:url(#radialGradient2468);fill-opacity:1;fill-rule:evenodd;stroke:none;stroke-width:1px;stroke-linecap:round;stroke-linejoin:round;marker:none;marker-start:none;marker-mid:none;marker-end:none;stroke-miterlimit:4;stroke-dasharray:none;stroke-dashoffset:0;stroke-opacity:1;visibility:visible;display:inline;overflow:visible" />
    <path
       d="M 39.76409,59.978416 L 52.06537,59.978416 L 44.88963,53.315224 L 43.35197,55.365438 L 41.8143,53.827778 L 39.76409,59.978416 z"
       id="path4173"
       style="fill:url(#linearGradient2512);fill-opacity:1;fill-rule:evenodd;stroke:none;stroke-width:1px;stroke-linecap:round;stroke-linejoin:round;marker:none;marker-start:none;marker-mid:none;marker-end:none;stroke-miterlimit:4;stroke-dasharray:none;stroke-dashoffset:0;stroke-opacity:1;visibility:visible;display:inline;overflow:visible" />
    <path
       d="M 53.88369,76.530602 C 57.45362,74.846092 59.11538,70.724995 59.11538,70.724995 C 56.33447,59.002613 47.58677,50.884654 47.58677,50.884654 C 47.58677,50.884654 54.73271,69.27464 53.88369,76.530602 z"
       id="path4370"
       style="opacity:0.22784807;fill:url(#linearGradient2509);fill-opacity:1;fill-rule:evenodd;stroke:none;stroke-width:1px;stroke-linecap:round;stroke-linejoin:round;marker:none;marker-start:none;marker-mid:none;marker-end:none;stroke-miterlimit:4;stroke-dasharray:none;stroke-dashoffset:0;stroke-opacity:1;visibility:visible;display:inline;overflow:visible" />
    <path
       d="M 49.6288,102.31428 L 80.38199,102.31428 C 89.0954,102.31428 97.72204,99.11929 100.88412,90.013 C 103.88689,81.365492 101.39667,64.897891 81.91965,51.571507 L 45.52837,51.571507 C 26.05135,63.872783 23.61734,80.695881 28.10156,90.52555 C 32.6699,100.5396 40.40284,102.31428 49.6288,102.31428 z"
       id="path4308"
       style="fill:url(#radialGradient2506);fill-opacity:1;fill-rule:evenodd;stroke:#204a87;stroke-width:2.89943886px;stroke-linecap:round;stroke-linejoin:round;marker:none;marker-start:none;marker-mid:none;marker-end:none;stroke-miterlimit:4;stroke-dasharray:none;stroke-dashoffset:0;stroke-opacity:1;visibility:visible;display:inline;overflow:visible" />
    <path
       d="M 51.67901,56.184486 C 60.90497,64.385337 65.00539,94.11343 65.00539,94.11343 C 65.00539,94.11343 69.10582,64.38534 76.28156,55.671934 L 51.67901,56.184486 z"
       id="path4310"
       style="fill:url(#linearGradient2503);fill-opacity:1;fill-rule:evenodd;stroke:none;stroke-width:1px;stroke-linecap:round;stroke-linejoin:round;marker:none;marker-start:none;marker-mid:none;marker-end:none;stroke-miterlimit:4;stroke-dasharray:none;stroke-dashoffset:0;stroke-opacity:1;visibility:visible;display:inline;overflow:visible" />
    <path
       d="M 58.28811,59.259807 C 58.28811,59.259807 52.05048,64.073847 52.58784,69.873299 C 46.66943,64.652007 46.49938,54.646826 46.49938,54.646826 L 58.28811,59.259807 z"
       id="path4312"
       style="fill:#729fcf;fill-opacity:1;fill-rule:evenodd;stroke:none;stroke-width:1px;stroke-linecap:round;stroke-linejoin:round;marker:none;marker-start:none;marker-mid:none;marker-end:none;stroke-miterlimit:4;stroke-dasharray:none;stroke-dashoffset:0;stroke-opacity:1;visibility:visible;display:inline;overflow:visible" />
    <path
       d="M 49.42203,99.29275 L 79.84714,99.22869 C 87.50086,99.22869 95.07836,96.42226 97.85588,88.42344 C 100.49347,80.827608 97.58124,66.362731 80.47294,54.65705 L 47.0577,53.952289 C 29.9494,64.757532 26.63805,79.534673 30.64099,88.87366 C 34.64393,98.21264 40.4852,99.22869 49.42203,99.29275 z"
       id="path4314"
       style="opacity:0.21518986;fill:none;fill-opacity:1;fill-rule:evenodd;stroke:#ffffff;stroke-width:2.89943814px;stroke-linecap:round;stroke-linejoin:round;marker:none;marker-start:none;marker-mid:none;marker-end:none;stroke-miterlimit:4;stroke-dasharray:none;stroke-dashoffset:0;stroke-opacity:1;visibility:visible;display:inline;overflow:visible" />
    <path
       d="M 71.15603,59.259807 C 71.15603,59.259807 77.39366,64.073847 76.8563,69.873299 C 82.77471,64.652007 82.94476,54.646826 82.94476,54.646826 L 71.15603,59.259807 z"
       id="path4316"
       style="fill:#729fcf;fill-opacity:1;fill-rule:evenodd;stroke:none;stroke-width:1px;stroke-linecap:round;stroke-linejoin:round;marker:none;marker-start:none;marker-mid:none;marker-end:none;stroke-miterlimit:4;stroke-dasharray:none;stroke-dashoffset:0;stroke-opacity:1;visibility:visible;display:inline;overflow:visible" />
    <path
       d="M 89.245516,46.855498 C 89.249732,60.729168 78.004081,71.978237 64.130408,71.978237 C 50.256738,71.978237 39.011087,60.729168 39.015303,46.855498 C 39.011087,32.981828 50.256738,21.732759 64.130408,21.732759 C 78.004081,21.732759 89.249732,32.981828 89.245516,46.855498 L 89.245516,46.855498 z"
       id="path4318"
       style="fill:url(#radialGradient2497);fill-opacity:1;fill-rule:evenodd;stroke:none;stroke-width:1px;stroke-linecap:round;stroke-linejoin:round;marker:none;marker-start:none;marker-mid:none;marker-end:none;stroke-miterlimit:4;stroke-dasharray:none;stroke-dashoffset:0;stroke-opacity:1;visibility:visible;display:inline;overflow:visible" />
    <path
       d="M 89.607946,36.707462 C 89.612162,50.581132 78.366511,61.830201 64.492838,61.830201 C 50.619168,61.830201 39.373517,50.581132 39.377733,36.707462 C 39.373517,22.833792 50.619168,11.584723 64.492838,11.584723 C 78.366511,11.584723 89.612162,22.833792 89.607946,36.707462 L 89.607946,36.707462 z"
       id="path4320"
       style="fill:url(#radialGradient2494);fill-opacity:1;fill-rule:evenodd;stroke:#c17d11;stroke-width:2.89943886px;stroke-linecap:round;stroke-linejoin:round;marker:none;marker-start:none;marker-mid:none;marker-end:none;stroke-miterlimit:4;stroke-dasharray:none;stroke-dashoffset:0;stroke-opacity:1;visibility:visible;display:inline;overflow:visible" />
    <path
       d="M 86.521232,36.707497 C 86.52493,48.876023 76.661426,58.742525 64.492897,58.742525 C 52.324371,58.742525 42.460867,48.876023 42.464565,36.707497 C 42.460867,24.53897 52.324371,14.672468 64.492897,14.672468 C 76.661426,14.672468 86.52493,24.53897 86.521232,36.707497 L 86.521232,36.707497 z"
       id="path4322"
       style="opacity:0.19620254;fill:none;fill-opacity:1;fill-rule:evenodd;stroke:#ffffff;stroke-width:2.89944124px;stroke-linecap:round;stroke-linejoin:round;marker:none;marker-start:none;marker-mid:none;marker-end:none;stroke-miterlimit:4;stroke-dasharray:none;stroke-dashoffset:0;stroke-opacity:1;visibility:visible;display:inline;overflow:visible" />
    <path
       d="M 37.6414,99.81832 C 34.02404,98.23821 32.40503,94.43036 32.40503,94.43036 C 34.84428,82.632146 43.19073,74.000285 43.19073,74.000285 C 43.19073,74.000285 36.58198,92.59008 37.6414,99.81832 z"
       id="path4354"
       style="opacity:0.22784807;fill:url(#linearGradient2490);fill-opacity:1;fill-rule:evenodd;stroke:none;stroke-width:1px;stroke-linecap:round;stroke-linejoin:round;marker:none;marker-start:none;marker-mid:none;marker-end:none;stroke-miterlimit:4;stroke-dasharray:none;stroke-dashoffset:0;stroke-opacity:1;visibility:visible;display:inline;overflow:visible" />
    <path
       d="M 92.45735,97.32958 C 96.02728,95.64507 97.68903,91.52397 97.68903,91.52397 C 94.90813,79.801592 86.16043,71.683633 86.16043,71.683633 C 86.16043,71.683633 93.30637,90.07362 92.45735,97.32958 z"
       id="path4364"
       style="opacity:0.22784807;fill:url(#linearGradient2487);fill-opacity:1;fill-rule:evenodd;stroke:none;stroke-width:1px;stroke-linecap:round;stroke-linejoin:round;marker:none;marker-start:none;marker-mid:none;marker-end:none;stroke-miterlimit:4;stroke-dasharray:none;stroke-dashoffset:0;stroke-opacity:1;visibility:visible;display:inline;overflow:visible" />
  </g>
</svg>
