<?xml version="1.0" encoding="UTF-8" standalone="no"?>
<!-- Created with Inkscape (http://www.inkscape.org/) -->
<svg xmlns:dc="http://purl.org/dc/elements/1.1/" xmlns:cc="http://creativecommons.org/ns#" xmlns:rdf="http://www.w3.org/1999/02/22-rdf-syntax-ns#" xmlns:svg="http://www.w3.org/2000/svg" xmlns="http://www.w3.org/2000/svg" xmlns:sodipodi="http://sodipodi.sourceforge.net/DTD/sodipodi-0.dtd" xmlns:inkscape="http://www.inkscape.org/namespaces/inkscape" width="547.8244" height="374.53711" id="svg2" sodipodi:version="0.32" inkscape:version="0.46" sodipodi:docname="mib.svg" inkscape:output_extension="org.inkscape.output.svg.inkscape" version="1.0">
  <defs id="defs4">
    <inkscape:perspective sodipodi:type="inkscape:persp3d" inkscape:vp_x="0 : 526.18109 : 1" inkscape:vp_y="0 : 1000 : 0" inkscape:vp_z="744.09448 : 526.18109 : 1" inkscape:persp3d-origin="372.04724 : 350.78739 : 1" id="perspective10"/>
    <inkscape:perspective id="perspective2447" inkscape:persp3d-origin="372.04724 : 350.78739 : 1" inkscape:vp_z="744.09448 : 526.18109 : 1" inkscape:vp_y="0 : 1000 : 0" inkscape:vp_x="0 : 526.18109 : 1" sodipodi:type="inkscape:persp3d"/>
  </defs>
  <sodipodi:namedview id="base" pagecolor="#ffffff" bordercolor="#666666" borderopacity="1.0" gridtolerance="10000" guidetolerance="10" objecttolerance="10" inkscape:pageopacity="0.0" inkscape:pageshadow="2" inkscape:zoom="0.7" inkscape:cx="200.13048" inkscape:cy="176.09467" inkscape:document-units="px" inkscape:current-layer="layer1" showgrid="false" inkscape:window-width="1280" inkscape:window-height="728" inkscape:window-x="-4" inkscape:window-y="-4"/>
  <metadata id="metadata7">
    <rdf:RDF>
      <cc:Work rdf:about="">
        <dc:format>image/svg+xml</dc:format>
        <dc:type rdf:resource="http://purl.org/dc/dcmitype/StillImage"/>
      </cc:Work>
    </rdf:RDF>
  </metadata>
  <g inkscape:label="Layer 1" inkscape:groupmode="layer" id="layer1" transform="translate(-16.2278, -15.1536)">
    <path style="fill: rgb(0, 0, 0);" d="M 319.25803,389.44671 C 318.92797,389.32015 317.9783,388.30462 317.14769,387.18998 C 315.93493,385.56259 315.32021,384.97745 314.02705,384.21944 C 312.04695,383.05883 311.23393,382.22663 310.71523,380.82949 C 310.12555,379.2412 310.18557,376.2965 310.84709,374.35839 C 311.21379,373.28405 311.29284,372.77673 311.10336,372.71357 C 310.62437,372.55391 309.87196,371.62704 309.27767,370.4646 C 308.71547,369.36493 308.69812,369.15114 308.54757,361.46276 C 308.3687,352.32972 308.81085,343.73488 309.79865,337.14395 C 311.56422,325.36353 311.81513,323.13777 311.81468,319.26028 C 311.81413,314.35614 311.27495,298.96873 310.98617,295.61543 C 310.93502,295.02131 310.82001,293.56301 310.73065,292.37476 C 310.64127,291.18652 310.53071,289.79294 310.48493,289.27794 C 310.39786,288.29806 309.97005,282.93094 309.7655,280.25228 C 309.69997,279.3941 309.54281,277.82778 309.41626,276.77156 C 309.2897,275.71535 309.01636,273.28485 308.80883,271.37046 C 308.60133,269.45607 308.38418,267.51167 308.32631,267.04958 C 308.26843,266.58748 308.05251,264.58907 307.84647,262.60867 C 307.64047,260.62825 307.42348,258.62985 307.36434,258.16776 C 307.24952,257.27069 306.75538,252.4658 306.06831,245.56517 C 305.76727,242.54175 304.77726,236.30782 304.12406,233.32266 C 303.27985,229.46459 302.16967,225.68982 301.73744,225.20792 C 301.64219,225.1017 301.49269,228.0183 301.40523,231.68925 C 301.07022,245.75073 300.46366,264.14707 299.87922,277.97181 C 299.49924,286.96029 299.37557,308.59936 299.68574,311.82631 C 299.84419,313.47485 300.25183,318.38583 300.42235,320.70057 C 300.50015,321.75679 300.77813,323.64717 301.04005,324.90144 C 301.30197,326.15569 302.26166,330.74836 303.17267,335.10737 C 305.80265,347.69111 305.8737,348.87501 304.83607,362.82921 C 304.36036,369.22681 304.32714,369.44689 303.75961,369.95946 L 303.17402,370.48839 L 303.78057,371.38221 C 304.61008,372.60454 304.69479,373.07808 304.56236,375.75214 C 304.37433,379.54909 303.32836,381.35659 301.12824,381.68654 C 299.53734,381.9251 299.32507,382.18762 298.9932,384.32679 C 298.65055,386.53551 298.47812,387.00142 297.88609,387.31828 C 297.64895,387.4452 295.90629,387.89359 294.01352,388.31468 C 290.75507,389.03963 290.25318,389.08541 284.57092,389.17576 L 278.5697,389.27116 L 277.56492,388.40722 C 276.38793,387.39522 275.80913,385.79284 275.80913,383.54644 C 275.80913,382.28194 275.93974,381.90645 277.04888,379.98265 C 279.40593,375.89437 281.56637,371.39541 281.31691,371.09482 C 281.18784,370.93929 280.24687,370.76113 279.22585,370.69887 C 275.55612,370.47513 272.89267,369.04666 272.60495,367.14791 C 272.53512,366.68701 272.30751,363.01525 272.09916,358.98842 C 271.89083,354.9616 271.40046,345.72571 271.00944,338.46422 C 270.61842,331.20273 270.0815,321.10265 269.81628,316.01961 C 269.26844,305.52072 269.17483,304.18125 267.87055,288.17391 C 267.34881,281.77059 266.80932,275.88339 266.67173,275.09123 C 266.17242,272.21695 263.41419,260.51179 262.37271,256.84748 C 261.20811,252.75006 259.35988,243.78283 256.83129,229.96197 C 256.19322,226.47441 256.21948,226.53753 255.33406,226.36292 C 254.10326,226.12018 253.28977,225.74522 253.13847,225.35094 C 252.98479,224.95046 253.30164,222.00219 253.84251,218.79968 C 254.03205,217.67745 254.41018,215.30097 254.68283,213.5186 C 254.95547,211.73624 255.22435,209.99298 255.28036,209.64471 C 255.34822,209.2226 255.22359,208.86795 254.90648,208.58097 C 254.11617,207.86576 252.34758,205.0283 249.84149,200.4549 C 247.0283,195.32114 247.07116,195.50517 246.28811,185.1928 C 245.04636,168.83954 244.583,163.31066 244.35387,162.11365 C 243.89893,159.73689 243.39315,150.81024 243.24042,142.46216 C 243.07112,133.20703 242.95656,134.52754 245.30209,118.69917 C 245.56621,116.91681 246.00402,113.94619 246.27498,112.09781 C 248.13177,99.431881 248.89389,95.942251 250.501,92.748061 C 251.75394,90.257771 253.19719,89.283721 258.64561,87.251251 C 265.49404,84.696531 277.01418,79.877211 278.47115,78.957461 C 279.0356,78.601151 279.77042,77.717811 280.49446,76.525221 C 281.11978,75.495221 282.60026,73.587031 283.78442,72.284791 C 284.96859,70.982551 286.07483,69.577731 286.24272,69.162971 C 286.41061,68.748221 286.6142,66.870031 286.69514,64.989241 L 286.84231,61.569621 L 285.88533,60.088991 C 285.359,59.274641 284.82271,58.215981 284.69356,57.736401 C 284.52728,57.118831 284.15256,56.648621 283.4092,56.124631 C 282.12328,55.218241 281.16443,53.998071 280.98735,53.042781 C 280.80436,52.055471 280.40751,48.807961 280.23969,46.924461 C 279.84049,42.443711 279.66828,41.199621 279.3259,40.323101 C 278.59756,38.458491 278.91549,29.689441 279.81758,26.760321 C 280.17156,25.610991 280.56164,25.105781 282.83054,22.858151 C 284.26399,21.438101 286.23633,19.736761 287.2135,19.077381 C 288.70313,18.072191 289.1677,17.878501 290.0892,17.878501 C 290.78387,17.878501 291.62131,17.659051 292.36529,17.282041 C 295.97398,15.453381 298.84499,14.801831 300.95745,15.332101 C 301.71485,15.522241 302.92868,15.747111 303.65484,15.831841 C 306.16121,16.124261 309.0225,16.710711 309.73137,17.077271 C 310.66756,17.561401 316.71838,23.479391 317.40349,24.580991 C 317.98637,25.518201 317.98095,25.429511 318.1172,36.260471 L 318.17781,41.079661 L 318.88159,42.097531 L 319.58536,43.115391 L 319.29238,46.851741 C 318.83603,52.671921 318.65524,53.273211 316.49163,56.166361 C 315.80048,57.090541 315.16555,58.170761 315.08064,58.566841 C 314.99574,58.962931 315.0944,60.259191 315.29988,61.447431 C 315.60611,63.218211 315.87768,63.951111 316.80562,65.510841 C 318.07953,67.652101 320.08423,69.923601 321.95935,71.350511 C 323.47812,72.506231 331.35339,75.995911 334.32404,76.829541 C 335.47768,77.153261 337.39375,77.688551 338.58199,78.019051 C 351.63179,81.648801 351.95859,81.762601 353.36206,83.166081 C 354.38928,84.193291 354.53052,84.479771 355.00388,86.495931 C 356.28884,91.969141 357.10013,100.48282 358.38149,121.93983 C 359.33641,137.93065 359.38984,139.82795 359.28753,154.10643 C 359.18105,168.96717 359.134,169.75921 357.88994,177.63124 C 356.2342,188.1085 354.54224,193.33896 351.23056,198.21784 C 350.58171,199.17373 349.42871,200.92476 348.66831,202.10903 L 347.28574,204.26224 L 347.91671,210.51076 C 348.26372,213.94743 348.54684,217.97452 348.54586,219.45982 L 348.54404,222.16038 L 347.8357,222.16038 C 347.44612,222.16038 346.60294,222.27283 345.96199,222.41031 L 344.7966,222.66023 L 344.84063,227.27131 C 344.92165,235.75659 344.55645,243.47708 343.86173,247.96566 C 343.51436,250.21013 343.12682,253.55881 343.00053,255.40719 C 342.69929,259.81646 342.44097,262.78527 341.59074,271.61051 C 340.60969,281.79349 340.4152,287.28529 340.2179,310.37845 C 339.99235,336.77665 339.99285,337.87043 340.23745,353.48323 C 340.39842,363.75762 340.38006,366.94593 340.15746,367.36184 C 339.80578,368.01893 338.45962,368.61673 335.52237,369.42015 C 331.88791,370.41426 331.85908,370.83593 335.11443,375.38895 C 337.82958,379.18635 339.13348,381.6716 339.34422,383.4509 C 339.52327,384.96266 339.24177,385.42614 337.21707,386.95349 C 335.1351,388.52403 333.99165,388.96277 330.92706,389.36696 C 327.97878,389.75582 320.20277,389.80896 319.25803,389.44671 z M 314.06414,106.57668 C 314.40889,104.99236 314.85173,102.72389 315.04824,101.53565 C 315.95558,96.048661 318.09718,80.730761 317.97418,80.607761 C 317.94357,80.577161 316.89664,82.073101 315.64767,83.932061 C 314.39871,85.791021 313.12475,87.510351 312.81662,87.752791 C 312.26736,88.184991 312.23692,88.181341 311.25631,87.566131 C 310.70625,87.221031 309.38121,86.146601 308.31181,85.178511 L 306.36744,83.418351 L 304.49589,85.474271 L 302.62438,87.530191 L 304.09635,89.654321 C 304.90597,90.822591 305.77485,92.299481 306.02724,92.936291 C 306.27965,93.573101 307.15436,95.498421 307.97106,97.214761 C 310.14901,101.79177 312.18059,106.60388 312.66369,108.32983 C 312.89661,109.16204 313.16597,109.75615 313.26225,109.6501 C 313.35854,109.54404 313.71938,108.16101 314.06414,106.57668 z M 294.29292,104.15809 C 294.29292,102.73691 295.29673,97.755171 296.36629,93.868291 C 296.84074,92.144121 297.36631,90.033041 297.5342,89.177011 C 297.83808,87.627831 297.83621,87.615821 297.13296,86.593671 C 296.74437,86.028871 296.31389,85.243951 296.17637,84.849421 C 296.03881,84.454881 295.84795,84.132081 295.7522,84.132081 C 295.65646,84.132081 294.35569,85.487371 292.86159,87.143851 C 291.19829,88.987911 289.99817,90.127321 289.76619,90.082651 C 289.55782,90.042521 289.10034,89.435311 288.74955,88.733291 C 287.9807,87.194561 287.57154,86.717581 287.57154,87.360001 C 287.57154,88.489221 291.66855,100.70765 293.23454,104.24859 C 293.89009,105.73093 294.29292,105.69648 294.29292,104.15809 z M 295.92415,82.571761 C 297.14333,81.119471 298.20788,79.676631 298.28976,79.365461 C 298.41912,78.873971 297.70375,78.064281 292.84043,73.197631 C 289.76136,70.116491 287.16362,67.644101 287.06765,67.703411 C 286.97168,67.762721 286.81975,68.245751 286.73004,68.776791 C 286.61761,69.442251 286.20035,70.169251 285.3874,71.116011 C 284.02963,72.697321 284.02776,72.144781 285.40862,77.410711 C 285.91063,79.325101 286.44676,81.539551 286.60004,82.331721 C 286.75331,83.123881 287.49151,85.051481 288.24043,86.615261 L 289.60216,89.458531 L 291.65479,87.335411 C 292.78374,86.167701 294.70496,84.024061 295.92415,82.571761 z M 314.85423,84.132081 C 318.04857,79.530731 318.19219,79.180231 318.64156,74.890191 C 319.18438,69.707891 319.19672,69.823611 317.93637,68.287141 C 317.34148,67.561921 316.74808,66.968571 316.61768,66.968571 C 316.48729,66.968571 313.92241,69.299281 310.9179,72.147931 C 307.91342,74.996581 305.02599,77.713181 304.50144,78.184831 C 303.576,79.016911 303.55816,79.062041 303.90132,79.703791 C 304.29526,80.440561 309.17488,85.306421 310.85631,86.639181 C 311.45043,87.110091 312.08682,87.467791 312.27054,87.434071 C 312.45422,87.400341 313.6169,85.914451 314.85423,84.132081 z M 426.31997,373.47871 C 423.70639,373.15174 418.67839,372.11072 418.19587,371.79666 C 417.88645,371.59526 417.41425,370.93529 417.14652,370.33003 C 416.70607,369.33438 416.68821,369.10222 416.959,367.89228 C 417.24779,366.60177 417.41909,366.39101 421.85216,361.87151 C 426.40275,357.23215 428.67748,354.39789 429.82039,351.94322 C 430.31878,350.87284 430.39644,350.34788 430.39846,348.03556 C 430.40009,346.18312 430.30885,345.29148 430.10075,345.1265 C 429.93572,344.99567 428.99052,344.86827 428.00032,344.84345 C 427.01012,344.81861 426.12777,344.72338 426.03955,344.63188 C 425.76812,344.35025 424.88736,335.4123 424.54075,329.42188 C 424.35995,326.29698 424.15456,323.64729 424.08435,323.5337 C 423.96591,323.34207 423.51552,318.08823 422.60675,306.29762 C 422.40198,303.64099 421.81824,298.97701 421.2998,295.85548 C 420.78451,292.75285 420.24226,289.1341 420.0948,287.81383 C 419.56516,283.07166 419.27731,281.92509 416.32843,272.81076 C 413.08457,262.78472 408.09383,248.0849 407.82688,247.77005 C 407.73563,247.66245 407.58795,249.71488 407.4987,252.33099 C 407.40942,254.94708 407.23299,258.11374 407.1066,259.368 C 406.98022,260.62226 406.77044,262.89073 406.64043,264.40904 C 406.5104,265.92734 406.12387,270.0862 405.78144,273.65092 C 405.43901,277.21566 405.06878,282.94083 404.95869,286.37354 C 404.49112,300.95233 404.22556,309.7519 403.9797,318.81026 C 403.83593,324.10788 403.62459,328.86086 403.51009,329.37242 C 403.39557,329.88399 403.12104,330.41057 402.90003,330.54259 C 401.63199,331.30007 401.54896,331.4846 400.73395,335.35606 C 400.2907,337.46163 399.92498,339.5187 399.92128,339.92731 C 399.91295,340.84748 399.44505,341.2824 397.75412,341.94164 C 397.02797,342.22475 395.83973,342.74641 395.11358,343.10084 C 393.83892,343.72305 393.65233,343.7453 389.71247,343.7453 C 386.8941,343.7453 385.32421,343.64328 384.63786,343.41554 C 383.7116,343.10818 383.55665,343.12617 382.35739,343.68018 C 381.64972,344.00709 380.0985,345.00361 378.91025,345.89465 C 375.164,348.7039 374.72599,348.84476 366.92705,349.7486 C 361.37047,350.39255 360.05693,350.32404 357.00382,349.23107 C 355.63149,348.73981 354.80596,347.36529 354.72403,345.43524 C 354.66702,344.09197 354.69369,344.02623 355.62548,343.21085 C 356.54682,342.40465 363.62609,338.81867 368.53005,336.67407 C 369.81839,336.11066 371.14208,335.43763 371.47159,335.17842 C 371.8011,334.91922 372.79095,333.66211 373.67126,332.38482 C 374.55157,331.10755 375.6573,329.58057 376.12847,328.99154 C 376.59964,328.40253 376.95568,327.74667 376.91967,327.5341 C 376.88364,327.32153 377.08062,326.18312 377.3574,325.00432 C 379.7059,315.0018 380.47795,311.45827 380.80547,309.17821 C 381.29325,305.7825 382.79591,293.60324 382.99712,291.41457 C 383.16923,289.54216 382.56827,279.76824 382.0525,276.05142 C 381.8693,274.73115 381.21797,270.0862 380.60515,265.72931 C 379.99233,261.37241 379.0582,254.67504 378.5293,250.84626 C 377.10439,240.53069 374.91941,227.72364 373.28722,220.11996 L 371.84441,213.39858 L 371.33313,205.47695 C 370.8126,197.41188 370.60309,187.51186 370.92841,186.35213 C 371.09325,185.7645 370.972,185.61202 369.47311,184.52181 C 366.92102,182.66559 364.13151,178.64388 363.02867,175.23076 L 362.40819,173.31036 L 362.17813,158.66736 C 361.84075,137.19465 362.32012,126.1956 364.1659,113.05801 C 366.0713,99.496331 366.46465,97.896271 368.31192,96.193511 C 369.63478,94.974151 371.23799,93.914101 376.95637,90.477731 C 382.23285,87.306941 383.92979,85.910811 386.79885,82.380021 C 388.67815,80.067281 389.0941,79.102261 389.10649,77.026441 C 389.11487,75.620701 388.71168,74.613191 387.48309,72.969801 C 386.42713,71.557321 385.17441,69.092931 384.87603,67.841101 C 384.79309,67.493231 384.64261,67.100591 384.5416,66.968571 C 384.01013,66.273951 383.29564,62.747761 382.64463,57.606651 C 382.24341,54.438001 381.74387,50.765251 381.53455,49.444981 C 380.98328,45.967811 381.02564,42.855691 381.65114,40.881811 C 382.49057,38.232911 385.16856,35.134661 388.19428,33.311831 C 390.37383,31.998801 391.77399,31.742711 397.43174,31.622311 L 402.51045,31.514241 L 404.51319,32.389901 C 409.26882,34.469251 409.78212,34.768341 411.20463,36.288881 C 414.32709,39.626541 414.97297,41.184781 415.29751,46.163441 C 415.46418,48.720021 415.61719,49.698721 415.89347,49.975001 C 416.19789,50.279431 416.24864,50.851621 416.17382,53.136501 C 416.06291,56.523691 415.53936,58.518691 413.84903,61.995371 L 412.63717,64.487911 L 412.63717,66.980671 L 412.63717,69.473431 L 415.2177,72.190731 C 416.63699,73.685241 418.50186,75.765821 419.36184,76.814241 L 420.92544,78.720471 L 427.34648,80.685711 C 437.50317,83.794311 438.79082,84.241861 441.75096,85.692381 C 444.15553,86.870651 444.67322,87.231071 445.49153,88.296551 C 446.01387,88.976701 446.61455,89.911271 446.82637,90.373361 C 447.38112,91.583751 449.77177,103.97667 450.32252,108.49708 C 451.71703,119.9435 452.78237,130.23861 452.86862,133.10212 C 452.9223,134.88448 453.08178,137.12807 453.22303,138.08788 C 453.49328,139.92442 453.57038,143.84223 453.3504,144.56142 C 453.27923,144.79414 452.99786,146.6982 452.72517,148.79266 C 452.45247,150.8871 452.05637,152.93526 451.84495,153.34412 C 450.95586,155.0634 442.63645,167.38739 440.9593,169.46957 L 440.18591,170.42977 L 440.32894,172.83027 C 440.40759,174.15054 441.07825,179.38961 441.81926,184.47265 C 442.99389,192.53014 443.19452,194.45288 443.38474,199.47572 C 443.50474,202.64437 443.85309,207.27888 444.15884,209.77462 L 444.7148,214.31232 L 443.79846,214.67227 C 442.73254,215.09097 442.58606,215.48141 442.17071,219.01117 C 441.67213,223.24806 442.00138,227.23065 443.12635,230.57059 C 443.37249,231.3014 443.73367,232.86772 443.92893,234.0513 C 445.0593,240.90308 447.57739,255.56005 448.27838,259.368 C 448.72799,261.8105 449.47608,266.13139 449.94079,268.96997 C 450.4055,271.80855 451.10601,275.21125 451.49749,276.53152 C 453.23657,282.39686 453.20601,282.14836 453.19991,290.37434 C 453.19686,294.5112 453.09343,302.81091 452.97004,308.81814 C 452.84668,314.82537 452.73139,325.41154 452.71386,332.34296 L 452.68196,344.94554 L 453.42452,347.22601 C 454.00158,348.9982 454.22901,350.2823 454.44485,352.98719 C 454.59765,354.90159 454.64607,356.97211 454.55245,357.58833 C 454.33386,359.02733 453.32419,360.41482 451.71233,361.49127 C 451.01525,361.9568 450.20664,362.51228 449.91544,362.72567 C 449.62424,362.93908 448.94698,363.13626 448.41043,363.16384 C 447.49694,363.2108 447.33769,363.33692 445.90595,365.14758 C 444.05997,367.48208 442.14099,369.37842 440.84295,370.15085 C 439.7792,370.78389 436.52267,371.89068 433.06079,372.79577 C 430.80664,373.38511 427.91423,373.67814 426.31997,373.47871 z M 217.47717,363.16244 C 217.1471,363.10352 215.31072,362.84016 213.39633,362.57719 C 210.29268,362.15086 209.69729,361.99038 207.90018,361.09586 C 206.79169,360.54411 204.79327,359.2936 203.45927,358.31696 C 200.40203,356.07872 200.43427,356.09451 196.80511,355.05651 C 193.14594,354.00997 191.40593,353.24208 190.4616,352.25709 C 189.78826,351.55478 189.74723,351.39375 189.66951,349.14814 C 189.58184,346.61567 189.96992,344.67719 190.85292,343.23688 C 191.10531,342.82519 191.3118,342.4214 191.3118,342.33952 C 191.3118,342.25764 190.87246,342.12041 190.3355,342.03454 C 188.86906,341.80003 188.70722,341.52991 188.96335,339.74435 C 189.24042,337.81279 189.01839,335.32612 188.37914,333.20162 C 187.89931,331.60687 187.88568,331.20945 188.04104,323.35959 C 188.15779,317.45996 188.09927,312.8037 187.83109,306.65769 C 187.46969,298.37597 187.27427,266.36188 187.58203,265.86387 C 187.65544,265.74512 187.5992,261.07533 187.45707,255.48655 C 187.25864,247.68411 187.06187,244.09408 186.6095,240.02232 C 186.28548,237.10576 185.96436,234.14834 185.89598,233.45022 C 185.82757,232.75214 185.28983,230.22339 184.70101,227.83079 C 184.1122,225.43822 183.63039,223.29799 183.63032,223.07472 C 183.63027,222.85148 183.53248,222.6084 183.413,222.53456 C 183.29089,222.45909 183.24653,222.79446 183.31168,223.30056 C 183.37539,223.79568 183.19879,225.44305 182.91922,226.96135 C 181.87959,232.60713 181.7039,233.59855 181.47283,235.12303 C 181.34275,235.9812 181.13636,237.27748 181.01415,238.00362 C 180.71269,239.79477 178.46634,248.48825 176.26902,256.36739 C 175.27491,259.93211 174.30462,263.44283 174.11288,264.16898 C 173.92113,264.89513 172.59029,269.81014 171.15549,275.09123 C 167.60029,288.17681 167.29524,289.33382 167.07305,290.5744 C 165.765,297.87825 165.09158,302.3188 164.77004,305.76058 C 164.55743,308.03634 164.24409,311.24863 164.07373,312.89897 C 163.90337,314.54931 163.75122,318.81619 163.73564,322.38092 C 163.72009,325.94564 163.63668,331.88687 163.55028,335.58362 C 163.40632,341.74494 163.35627,342.33114 162.94958,342.61868 C 162.55541,342.89735 162.50589,343.29427 162.50589,346.17517 C 162.50589,348.16311 162.39869,349.62091 162.22883,349.94234 C 162.07642,350.23073 161.50614,350.89877 160.96154,351.42688 C 160.41691,351.95499 159.18453,353.27172 158.22287,354.353 L 156.47439,356.3189 L 155.20691,356.27339 C 153.97246,356.22903 153.90011,356.26423 152.43276,357.62204 C 150.08191,359.79746 147.7705,361.31747 146.35006,361.6221 C 144.96079,361.92005 141.88802,361.78492 138.1409,361.26109 C 136.82063,361.07651 135.1244,360.87134 134.3715,360.80512 C 132.15849,360.61046 131.46926,360.2058 130.83349,358.72792 C 130.40198,357.72481 130.31078,357.17367 130.41281,356.18516 C 130.5675,354.68638 130.97356,353.90084 132.73744,351.688 C 133.46489,350.77541 134.54616,349.41257 135.14029,348.65949 C 135.73441,347.90641 137.12161,346.22258 138.22295,344.91765 C 140.16766,342.61344 141.77472,339.98637 141.50577,339.55121 C 141.43296,339.43339 140.77619,339.20333 140.04625,339.04 C 139.31633,338.87665 138.6838,338.68026 138.64064,338.60361 C 138.59746,338.52694 138.70516,337.11394 138.87994,335.4636 C 139.28903,331.60138 139.38465,312.74635 139.02664,306.53767 C 138.88199,304.02915 138.69386,298.08794 138.60854,293.33496 C 138.44569,284.2592 138.41507,284.85064 139.70232,272.21063 C 140.73514,262.0692 141.01984,257.43729 141.25158,247.00547 C 141.38519,240.99072 141.742,232.53234 141.99304,229.42762 L 142.11391,227.9331 L 141.32221,227.60229 C 140.88678,227.42036 139.63057,226.58232 138.53064,225.73999 C 136.16648,223.92946 135.29752,222.49464 134.87693,219.707 C 134.58631,217.78073 134.54199,211.98092 134.79188,208.57241 L 134.95211,206.38678 L 133.96928,206.22962 C 133.42873,206.14318 132.60691,205.89146 132.14299,205.67023 L 131.2995,205.26801 L 131.29914,192.52985 C 131.29895,185.52386 131.22974,173.41839 131.14532,165.62879 C 130.99675,151.91745 131.23293,138.94545 131.77907,130.82165 C 131.90334,128.97327 132.06542,126.11069 132.13924,124.46035 C 132.41942,118.19728 132.78649,113.62688 133.36347,109.21723 C 133.69168,106.70871 134.17227,102.92794 134.43142,100.8155 C 135.16326,94.849871 135.59264,92.074011 135.86115,91.572271 C 136.33652,90.684031 139.69217,88.708381 149.30319,83.658211 C 156.64502,79.800411 158.75054,78.609141 163.22605,75.780931 C 169.52671,71.799341 170.11003,71.413701 170.4882,70.979751 C 170.68891,70.749471 170.98424,69.537161 171.16106,68.217811 C 171.42175,66.272481 171.42146,65.712741 171.15933,64.977151 C 170.71332,63.725641 169.98934,62.767701 169.48951,62.767701 C 169.25229,62.767701 168.54868,62.104321 167.89822,61.267401 C 166.94829,60.045161 166.60557,59.322181 166.04902,57.366601 C 165.151,54.211101 164.89966,50.817551 165.49655,49.906601 C 165.98579,49.159911 166.01467,48.890731 166.31848,42.243501 C 166.61542,35.746541 167.00473,34.355231 169.32159,31.511051 C 170.56085,29.989731 173.05298,28.022091 173.99482,27.821341 C 174.34327,27.747071 175.65459,27.302911 176.90885,26.834311 L 179.18931,25.982321 L 183.15013,26.120831 C 190.2919,26.370581 192.60552,27.261931 196.61348,31.307741 C 199.93274,34.658351 200.53473,35.816321 200.54582,38.871781 C 200.55014,40.066101 200.40906,42.506091 200.23227,44.294001 C 199.91425,47.510291 199.91653,47.554381 200.44714,48.453681 C 200.95892,49.321121 200.9758,49.517941 200.81638,52.764481 C 200.55406,58.106771 199.68594,61.087361 198.39229,61.087361 C 197.74882,61.087361 197.50502,61.677121 197.10224,64.208001 C 196.6334,67.153861 196.51724,69.852811 196.81983,70.769651 C 197.1286,71.705221 198.85959,73.402901 201.75394,75.608761 C 203.29249,76.781331 204.19392,77.173411 212.43613,80.255101 C 217.38714,82.106241 223.54234,84.579841 226.11433,85.751981 C 230.05308,87.546991 230.86078,88.003161 231.23511,88.644081 C 231.81044,89.629191 234.90847,100.41309 235.11104,102.13577 C 235.26414,103.43783 235.73683,106.8973 236.20982,110.17742 C 236.34307,111.10161 236.50383,112.28986 236.56704,112.81796 C 236.63024,113.34607 236.84528,114.91239 237.0449,116.29868 C 237.2445,117.68496 237.51398,119.57535 237.64378,120.49954 C 238.28579,125.07169 238.99281,139.26463 239.4434,156.62695 C 239.64386,164.35053 239.91575,174.45059 240.04761,179.07155 C 240.17946,183.69249 240.35758,191.49312 240.44339,196.4063 L 240.59943,205.33933 L 239.90052,205.60912 C 239.51614,205.75751 238.5738,205.83511 237.80644,205.78156 C 236.71241,205.70522 236.36971,205.76548 236.21879,206.06068 C 236.11296,206.26774 235.95544,207.65703 235.86873,209.14799 C 235.76239,210.97715 235.55328,212.26537 235.22578,213.1088 C 234.95885,213.79629 234.53754,215.439 234.28952,216.75927 C 233.46262,221.16153 233.38958,221.33902 231.38401,223.82058 C 228.8538,226.95126 228.13101,227.59876 224.79866,229.7199 C 223.21434,230.7284 221.8342,231.63577 221.7317,231.7363 C 221.62918,231.8368 221.67557,234.96606 221.8348,238.69018 C 222.19027,247.00434 221.77839,269.3743 221.18518,273.97212 C 220.98654,275.51181 220.65892,278.06783 220.45715,279.65216 C 219.89461,284.0693 219.44722,287.07928 218.92296,289.97428 C 218.65994,291.42657 218.27953,293.64103 218.0776,294.89528 C 217.87564,296.14954 217.55081,298.03992 217.35572,299.09614 C 217.16061,300.15236 216.89682,301.98874 216.76947,303.17698 C 216.51658,305.53688 215.97616,310.02004 215.42393,314.33927 C 215.01241,317.55789 214.64226,324.3938 214.40487,333.15841 L 214.2365,339.37497 L 213.09627,339.707 C 211.83848,340.07329 211.83791,340.07406 212.23492,340.82047 C 213.47456,343.15108 218.15652,347.27476 224.42668,351.5585 C 227.75224,353.83044 229.85584,355.50166 230.51825,356.39793 C 230.8101,356.79281 231.04199,357.56896 231.1088,358.37459 C 231.21178,359.61644 231.17068,359.746 230.46436,360.40582 C 229.54586,361.26383 226.37498,362.50934 224.22189,362.85782 C 222.45271,363.1442 218.40017,363.32722 217.47717,363.16244 z M 545.6244,352.97267 C 543.5679,352.3188 543.1016,352.25651 540.876,352.33829 C 539.3266,352.39523 538.2828,352.33184 538.0717,352.16798 C 537.8869,352.02443 537.6678,351.31285 537.585,350.5867 C 537.2878,347.98087 536.9919,346.41901 536.7493,346.17647 C 536.6071,346.03429 536.5026,344.6788 536.5026,342.97714 L 536.5026,340.02453 L 535.6679,340.02453 C 534.3357,340.02453 534.0728,339.37929 533.9334,335.76734 C 533.8364,333.2534 533.6863,332.29346 533.0978,330.42257 C 532.2474,327.71848 532.1981,326.59882 532.8649,325.13128 C 533.1374,324.53156 533.428,323.61337 533.5107,323.09086 C 533.6574,322.16446 533.6155,322.09314 531.8202,320.22047 L 529.9792,318.30008 L 530.1253,314.33927 C 530.2057,312.16082 530.3667,309.71964 530.4831,308.91444 C 530.6247,307.93442 530.5996,306.89066 530.407,305.75722 C 530.1687,304.35387 529.9672,303.89552 529.2302,303.07972 C 528.7411,302.53833 528.3332,302.06867 528.3238,302.03605 C 528.3046,301.96948 528.13,300.40115 527.4155,293.87596 C 527.1444,291.40096 526.8628,289.02447 526.7897,288.59488 C 526.7164,288.16531 526.5542,286.47795 526.4292,284.84524 C 526.2119,282.00733 526.1605,281.80655 525.2616,280.2843 C 523.9711,278.09904 524.1198,278.8058 523.4363,271.61051 C 523.2405,269.54911 522.6024,265.53452 522.0055,262.60867 C 520.8085,256.74206 520.5103,254.85606 519.3484,245.80522 C 518.7252,240.95135 518.3054,238.6568 517.4597,235.4831 C 516.2595,230.97909 513.7,220.27863 513.6942,219.74094 C 513.6872,219.096 513.2829,218.68691 512.936,218.97384 C 512.5407,219.30086 512.7953,229.25491 513.3522,235.24306 C 514.3709,246.19614 514.6434,249.60549 514.8778,254.32696 C 515.3155,263.14498 515.6344,267.85151 515.8619,268.84995 C 515.9822,269.37806 516.6138,271.75454 517.2655,274.13103 C 518.144,277.33465 518.548,279.36282 518.8279,281.97476 C 519.0355,283.91234 519.5977,288.07119 520.0771,291.21664 C 520.9132,296.70098 520.9437,297.12289 520.8203,301.49663 L 520.6916,306.05757 L 521.6608,309.05818 L 522.6299,312.0588 L 522.5297,315.77956 C 522.4434,318.98724 522.359,319.63612 521.9177,320.48508 C 521.6362,321.0267 521.4488,321.67483 521.5012,321.92538 C 521.5537,322.17594 521.7709,323.11846 521.9841,324.01992 C 522.3238,325.45734 522.3404,326.3579 522.1191,331.34143 C 521.9804,334.4668 521.9368,337.28589 522.0222,337.60606 C 522.1476,338.07584 522.0113,338.33066 521.3163,338.92633 L 520.455,339.66446 L 520.0947,344.27082 C 519.8165,347.82815 519.6218,349.13198 519.2395,349.99616 L 518.7445,351.11514 L 515.6181,351.03096 C 512.8496,350.95642 512.477,350.99318 512.3632,351.35208 C 512.2925,351.57498 511.858,352.08809 511.3976,352.4923 L 510.5605,353.22725 L 504.24554,353.22725 C 500.77229,353.22725 496.44305,353.1559 494.62499,353.06871 L 491.31942,352.91019 L 490.85987,352.16853 C 490.47682,351.55033 490.42653,351.16711 490.55777,349.86655 C 490.79993,347.46652 491.70088,345.91546 493.94174,344.04078 C 496.03155,342.29242 499.31839,338.97434 499.72712,338.20035 C 499.8928,337.88661 499.93946,337.05532 499.85079,335.99757 C 499.72604,334.50952 499.64312,334.2823 499.18273,334.16674 C 497.60925,333.77183 497.23763,328.93882 498.24558,321.9786 L 498.6167,319.4158 L 497.66442,317.77773 C 497.14068,316.87678 496.19369,314.68134 495.55998,312.89897 L 494.40782,309.65831 L 494.46358,305.6861 L 494.51934,301.7139 L 493.27762,297.40439 C 492.09528,293.30102 492.03452,292.95141 492.00728,290.0943 C 491.98577,287.8405 492.08256,286.76918 492.39613,285.78985 C 493.09331,283.61244 492.96903,282.6443 491.75424,280.78951 L 490.69488,279.17206 L 490.06787,274.61113 C 489.72302,272.10261 489.22667,268.53788 488.96489,266.6895 C 488.7031,264.84112 488.27624,261.38442 488.01631,259.00793 C 487.75641,256.63144 487.26835,253.2335 486.93174,251.45694 C 486.05842,246.84768 483.95629,238.27439 483.45648,237.28347 C 483.2234,236.82138 482.52103,234.0128 481.89566,231.04219 C 480.81518,225.90975 479.63751,220.70359 479.11277,218.73967 C 478.91715,218.00759 478.7616,217.83949 478.27977,217.83949 C 477.95393,217.83949 477.48305,218.08254 477.23337,218.3796 C 476.98373,218.67666 476.52535,219.22117 476.21477,219.58964 C 475.76348,220.12502 475.4191,220.27258 474.49986,220.3244 C 473.62303,220.37383 473.19514,220.5436 472.69949,221.03865 C 470.58598,223.14964 470.03586,223.46343 468.27388,223.56299 C 467.16242,223.6258 466.07762,223.51747 465.06024,223.24208 C 463.65562,222.86187 463.37786,222.66976 461.80848,220.99306 C 459.0973,218.09648 459.20866,218.43025 459.2076,213.19701 C 459.20676,208.97133 459.17527,208.6484 458.72757,208.276 C 458.25557,207.88337 458.2476,207.53294 458.19095,184.7127 C 458.12568,158.40879 458.18057,157.11973 460.19425,137.66305 C 460.46071,135.08853 460.88115,130.38957 461.12857,127.22092 C 461.37599,124.05226 461.73981,119.89341 461.93703,117.97902 C 462.13428,116.06463 462.35719,113.68814 462.43242,112.69794 C 463.32269,100.98077 463.54891,99.589641 464.85646,97.791501 C 465.84141,96.437011 470.95554,91.880221 473.06754,90.475271 C 474.15563,89.751431 476.80484,88.100451 478.95465,86.806401 C 484.80419,83.285381 486.28318,82.260791 488.1825,80.413641 L 489.91268,78.730981 L 489.70895,76.113241 L 489.50521,73.495521 L 488.30485,72.392481 C 486.83782,71.044431 486.16092,69.924321 485.96336,68.517801 C 485.78638,67.257711 485.56219,66.608481 484.48733,64.243431 C 482.92108,60.797111 482.47115,58.597341 482.25403,53.324021 C 481.96926,46.408351 482.43042,44.201211 484.75949,41.332761 C 485.31759,40.645421 485.8435,39.813001 485.92825,39.482931 C 486.21427,38.368541 486.98852,37.409471 489.2103,35.417411 C 491.83444,33.064581 493.06832,32.464941 496.36369,31.941031 C 498.59005,31.587081 499.116,31.585131 502.23272,31.919371 C 506.86311,32.415931 507.84582,32.729851 509.19459,34.143241 C 509.79231,34.769601 510.5651,35.476991 510.9119,35.715241 C 511.2587,35.953481 512.5331,37.465791 513.7441,39.075921 C 514.955,40.686071 516.0346,42.064131 516.1431,42.138311 C 516.6573,42.489491 517.5387,43.957421 517.5387,44.462501 C 517.5387,44.773471 517.7182,45.373611 517.9376,45.796141 C 518.157,46.218681 518.5927,47.850721 518.9058,49.422911 C 519.458,52.195191 519.4636,52.338211 519.0914,54.163301 C 518.6316,56.417521 517.2737,60.535831 516.7031,61.406691 C 516.4156,61.845551 516.2538,62.760381 516.1587,64.485781 C 516.0258,66.898801 516.0085,66.957061 515.1426,67.914731 C 513.7584,69.445541 513.4578,70.005451 513.4578,71.052841 C 513.4578,71.888801 513.605,72.170511 514.478,73.006381 C 517.4717,75.872451 519.3704,76.795391 528.8011,79.968861 C 537.6576,82.949131 547.0987,86.442411 548.0885,87.105391 C 549.479,88.036821 550.327,89.619221 550.7646,92.099631 C 551.6896,97.341911 552.294,99.485781 555.5999,109.25032 C 560.8751,124.83198 562.3514,129.54141 562.6459,131.72777 C 562.7922,132.81373 563.1283,136.67285 563.393,140.3036 C 563.6576,143.93434 563.9318,147.28388 564.0024,147.74702 C 564.2132,149.12999 563.6555,160.29002 563.1628,164.54856 C 562.9108,166.72701 562.5293,170.18372 562.315,172.23014 C 561.3446,181.49901 559.0656,198.23711 558.7279,198.57478 C 558.6551,198.64754 558.3506,198.83483 558.0512,198.991 C 557.7518,199.14716 557.5289,199.38611 557.5557,199.522 C 557.6534,200.01532 557.1346,204.29683 556.885,205.05785 C 556.7115,205.58675 556.2944,206.035 555.593,206.44601 C 554.5176,207.07625 552.3458,209.23039 552.3458,209.66684 C 552.3458,209.80414 551.9711,210.33125 551.5131,210.83818 C 550.9305,211.48302 550.0292,212.03881 548.5125,212.68842 L 546.3446,213.61695 L 546.3452,217.82864 C 546.3469,231.01797 547.8261,250.49312 549.7106,262.1379 C 550.8627,269.25673 550.9351,269.56498 551.8434,271.21882 C 552.7148,272.80569 554.2419,277.38403 555.4488,282.02833 C 556.4004,285.69021 556.7211,291.33926 556.7719,305.33742 C 556.8116,316.29278 556.8843,318.74239 557.2412,321.1564 C 557.4735,322.72738 557.8498,326.55076 558.0775,329.65281 L 558.4914,335.29288 L 557.459,335.74955 C 556.4938,336.1765 556.4266,336.26791 556.4266,337.15463 C 556.4266,338.03071 556.5959,338.27239 558.6471,340.32404 C 560.4495,342.12691 561.1287,343.02403 562.2545,345.08923 C 563.6128,347.58088 564.293,349.86639 563.9747,350.86922 C 563.7724,351.50671 562.2894,352.2482 559.9279,352.89257 C 558.0286,353.41081 557.1111,353.50126 552.8259,353.59272 L 547.9049,353.69774 L 545.6244,352.97267 z M 82.08941,352.51526 C 82.08941,352.34369 81.85685,352.00162 81.57259,351.75509 C 81.19883,351.43093 81.15438,351.30685 81.41199,351.30685 C 81.81276,351.30685 82.49779,352.41878 82.24982,352.66678 C 82.1616,352.75499 82.08941,352.6868 82.08941,352.51526 z M 119.4325,351.95664 C 119.52264,351.7199 119.65687,351.58667 119.73078,351.66056 C 119.8047,351.73447 119.73093,351.92817 119.56688,352.09102 C 119.32981,352.32632 119.30223,352.29875 119.4325,351.95664 z M 59.76484,351.80111 C 59.76484,351.66131 59.87286,351.5469 60.00489,351.5469 C 60.13692,351.5469 60.24494,351.59453 60.24494,351.65276 C 60.24494,351.71097 60.13692,351.82538 60.00489,351.90697 C 59.87286,351.98857 59.76484,351.94094 59.76484,351.80111 z M 101.69344,351.86695 C 101.60542,351.77895 101.5334,349.78055 101.5334,347.42604 C 101.5334,343.56036 101.57707,343.10151 101.98349,342.69508 C 102.23106,342.44754 102.58213,342.19415 102.76365,342.13203 C 102.99086,342.05427 102.7758,341.69951 102.07351,340.99357 C 101.09233,340.0073 101.0533,339.91087 101.0533,338.47368 C 101.0533,337.65175 100.9827,335.66606 100.89638,334.06099 L 100.73949,331.14271 L 99.84876,331.14271 L 98.95805,331.14271 L 97.12802,326.26241 C 95.35249,321.52744 94.46314,318.18594 94.2245,315.35331 C 92.93556,300.05327 92.36268,273.08736 93.08614,261.76849 C 93.8218,250.25845 93.81748,250.76378 93.19387,249.16591 C 89.32195,239.24513 87.90415,235.79553 84.31428,227.56148 C 80.14904,218.00769 79.28943,216.28949 78.13002,215.20028 C 77.0027,214.14121 76.94391,214.57108 77.28629,221.3692 C 77.70338,229.6506 77.48002,260.04513 76.94703,267.52968 C 76.6192,272.13355 76.61806,273.41635 76.93657,279.41211 C 77.13295,283.10887 77.34417,286.54498 77.40598,287.0479 C 77.4678,287.55083 77.68735,289.98133 77.89391,292.44901 C 78.27623,297.01647 78.39098,297.6304 79.80914,302.69688 C 81.81948,309.87891 84.00131,318.93294 84.14928,320.70729 C 84.32142,322.77119 84.07037,325.25692 83.24534,329.65789 L 82.7362,332.37393 L 81.2816,333.79291 L 79.82697,335.21191 L 79.72788,338.3927 C 79.66151,340.52271 79.52084,341.73827 79.30204,342.0722 C 79.07435,342.4197 79.03741,342.78751 79.18021,343.28543 C 79.29291,343.67842 79.40609,345.13091 79.43174,346.51317 C 79.46966,348.56006 79.55911,349.11546 79.9137,349.50648 C 80.15315,349.77053 80.47323,350.22744 80.625,350.52187 C 80.88876,351.0336 80.86634,351.05043 80.11486,350.90419 C 79.68256,350.82008 79.24949,350.63323 79.15249,350.48896 C 79.04478,350.32875 78.97471,350.39221 78.97244,350.65197 C 78.96921,351.02832 78.79586,351.0613 77.46847,350.93825 C 76.6433,350.86175 74.45585,350.80772 72.60747,350.81816 C 70.7591,350.8286 69.03074,350.83822 68.76668,350.83952 C 63.75595,350.86417 62.42559,350.8136 62.28944,350.59328 C 62.04565,350.19883 61.68711,350.55105 61.86068,351.01447 C 61.9943,351.37114 61.96177,351.38345 61.61999,351.10557 C 61.36011,350.89427 60.9646,350.84145 60.4648,350.95121 C 60.00511,351.05218 59.76033,351.02827 59.84533,350.89075 C 59.92668,350.75911 58.95362,350.55115 57.53488,350.39699 C 55.50375,350.17626 55.01192,350.04177 54.6638,349.61193 C 54.43275,349.32664 54.24371,348.89632 54.24371,348.65568 C 54.24371,348.415 53.89763,347.66139 53.47466,346.98094 C 52.78808,345.87646 52.70439,345.54651 52.69451,343.90438 L 52.68339,342.06496 L 54.11334,340.26459 C 54.89981,339.27438 56.16761,337.79995 56.93067,336.98806 C 58.53255,335.28371 58.65716,335.01387 59.15401,332.17346 C 59.63881,329.40186 59.62129,328.24686 59.03601,324.39632 C 58.29836,319.54355 57.99143,318.64539 56.4994,316.97326 C 55.79676,316.18577 55.0949,315.30429 54.93976,315.01438 C 54.51357,314.21807 54.21982,307.12013 54.29587,299.45622 C 54.36057,292.93413 54.0727,288.55395 53.16709,282.28094 C 53.10897,281.8784 52.83894,279.23186 52.56703,276.39973 C 52.29513,273.56763 52.01886,270.92637 51.95308,270.53029 C 51.88734,270.13421 51.73414,268.18981 51.61265,266.2094 C 51.46925,263.87214 51.18481,261.76635 50.802,260.20817 C 50.01215,256.99305 47.99388,249.46629 47.86625,249.25979 C 47.8102,249.1691 46.34234,243.81778 44.60434,237.368 L 41.44433,225.64108 L 41.40605,221.08015 L 41.36776,216.51922 L 38.10371,216.36571 C 36.30851,216.28126 34.73655,216.14844 34.6105,216.07052 C 34.48444,215.99262 33.36821,215.77384 32.13002,215.58435 C 29.70586,215.21338 27.89324,214.53022 27.0946,213.68657 C 26.81967,213.39615 25.74336,211.88899 24.70279,210.33732 C 23.14702,208.01737 22.67618,207.08264 22.0529,205.07639 C 21.37368,202.89015 21.3075,202.41635 21.41583,200.51609 L 21.53674,198.39551 L 20.50136,198.39551 L 19.46601,198.39551 L 19.33369,197.37529 C 19.26093,196.81418 19.0344,194.41068 18.83028,192.0342 C 18.62617,189.65772 18.4151,187.38925 18.3612,186.99316 C 18.30733,186.59709 18.0882,184.65269 17.87424,182.67228 C 17.66029,180.69187 17.45242,178.80149 17.41232,178.47142 C 17.09691,175.87562 17.00286,174.65848 16.79082,170.42977 C 16.65844,167.78923 16.48383,164.63791 16.40283,163.42684 C 16.19867,160.37511 16.16209,150.20815 16.35158,149.18542 C 16.43718,148.72333 16.68664,146.77892 16.90593,144.86453 C 17.12524,142.95014 17.35096,141.05975 17.40754,140.66367 C 17.9481,136.88006 18.46935,122.65032 18.47438,111.53877 C 18.4765,106.90038 18.83129,103.78442 20.37872,94.814281 C 21.07316,90.788841 21.09421,90.723441 21.92972,89.996731 C 23.1257,88.956491 26.64998,87.054711 30.71888,85.253901 C 40.5688,80.894551 51.67939,75.331791 52.75466,74.221221 C 53.51953,73.431231 53.54759,73.332181 53.59183,71.266421 C 53.63437,69.279281 53.58295,69.024001 52.86033,67.635381 C 51.92277,65.833641 50.64297,62.394851 50.64297,61.677361 C 50.64297,60.523861 50.15838,59.706181 49.38286,59.551081 C 48.96925,59.468351 48.29781,59.037101 47.89078,58.592731 C 46.9212,57.534171 46.07265,54.130881 46.07817,51.322781 C 46.08165,49.553161 46.13737,49.316281 46.64366,48.918041 C 47.16874,48.504991 47.21624,48.254411 47.3742,45.063271 C 47.72995,37.875911 48.19642,35.779041 50.06479,32.968601 C 51.98893,30.074291 52.41929,29.700511 55.55389,28.201331 C 60.18879,25.984591 60.33686,25.945401 63.43503,26.115441 C 69.9217,26.471431 74.80522,28.197821 77.87693,31.220861 C 79.27894,32.600651 79.9827,33.914861 81.10831,37.255361 C 81.84327,39.436521 81.85357,39.532811 81.81616,43.877111 C 81.77829,48.277921 81.77932,48.287121 82.41391,49.221031 C 83.12962,50.274271 83.19105,51.063661 82.81314,54.350821 C 82.60026,56.202561 82.48216,56.518251 81.43468,58.035591 C 79.68772,60.566181 79.43406,61.156241 79.2239,63.178511 C 79.11703,64.206831 78.84164,65.685011 78.61191,66.463381 C 77.97607,68.617911 78.19243,69.899671 79.51993,71.842531 C 81.52561,74.777941 82.3695,75.260491 87.61054,76.468871 C 89.26088,76.849361 95.58018,78.505271 101.65343,80.148661 C 111.99942,82.948241 112.73355,83.182291 113.29581,83.860421 C 114.05883,84.780631 116.03799,89.309421 117.50584,93.494001 C 118.57958,96.554961 118.66019,96.960961 118.95951,100.8155 C 119.25707,104.64768 119.53529,106.51731 120.72766,112.69794 C 121.26254,115.47041 122.81737,124.66188 123.61075,129.74144 C 123.88914,131.5238 124.39046,134.40557 124.72479,136.14536 C 125.32448,139.26597 125.33142,139.43752 125.23886,148.86797 L 125.14505,158.42731 L 122.82116,172.07705 C 121.54304,179.58439 120.49729,185.76327 120.49729,185.80787 C 120.49729,185.85249 119.88924,185.92139 119.14607,185.96098 L 117.79486,186.03297 L 117.7969,187.35324 C 117.79801,188.07939 117.87662,190.13181 117.97158,191.91417 C 118.14132,195.09983 117.81939,198.92982 117.12421,201.99624 C 116.87058,203.11491 117.32405,206.09097 120.23319,222.40042 C 120.76304,225.37103 121.36439,228.77373 121.56949,229.96197 C 121.77459,231.15022 122.10413,232.98659 122.3018,234.04281 C 122.65843,235.94827 122.93971,238.35575 123.85841,247.36554 C 124.12092,249.94007 124.45666,252.96469 124.60448,254.08692 C 125.00632,257.13739 125.1993,311.01276 124.82004,314.26152 C 124.62325,315.94712 124.24395,317.50568 123.5963,319.28983 C 122.90767,321.18689 122.65773,322.24829 122.65773,323.2757 C 122.65773,324.04587 122.37125,325.81934 122.0211,327.2167 C 121.41821,329.62268 121.34308,329.77472 120.60457,330.08328 C 119.86651,330.39168 119.83506,330.45514 120.01814,331.26699 C 120.12456,331.73881 120.49952,332.71326 120.85138,333.43243 C 121.45508,334.66635 122.04916,335.28352 125.84865,338.62397 C 127.02922,339.66187 127.93881,342.06865 127.93881,344.15447 C 127.93881,345.59193 127.91612,345.64286 126.83273,346.63753 C 126.09466,347.31514 125.42375,347.70146 124.81628,347.7986 C 122.95006,348.09701 121.36831,348.88933 120.66177,349.87966 C 120.29013,350.40057 119.79862,350.82675 119.56954,350.82675 C 119.34044,350.82675 119.02339,350.95638 118.86495,351.11481 C 118.64091,351.33885 118.57689,351.31218 118.57689,350.99478 C 118.57689,350.51684 118.31027,350.46925 117.90476,350.87476 C 117.68747,351.09207 117.61669,351.09352 117.61669,350.88071 C 117.61669,350.67501 117.44511,350.66383 116.98328,350.8394 C 116.63492,350.97186 116.29285,351.0232 116.22314,350.9535 C 116.15342,350.88378 116.24042,350.82675 116.41645,350.82675 C 116.5925,350.82675 116.6795,350.76971 116.60978,350.70001 C 116.54007,350.63029 116.198,350.68164 115.84962,350.8141 C 115.37894,350.99305 115.21527,350.97935 115.21253,350.76078 C 115.21018,350.57194 115.12427,350.59553 114.97248,350.82675 C 114.82422,351.05257 114.66899,351.09733 114.55607,350.94678 C 114.3105,350.61934 111.77481,350.56894 111.57788,350.88758 C 111.46795,351.06543 111.19578,351.05065 110.68484,350.839 C 110.14351,350.61477 109.75967,350.60092 109.22767,350.78635 C 108.75468,350.95124 108.45481,350.95621 108.35874,350.80075 C 108.26253,350.64508 108.11123,350.64705 107.91916,350.80647 C 107.60182,351.06982 105.66117,351.03244 105.21108,350.75428 C 105.05891,350.66023 104.67658,350.68128 104.36149,350.80109 C 104.01277,350.93367 103.63042,350.93036 103.38432,350.79264 C 103.12732,350.6488 102.81553,350.65447 102.52835,350.80814 C 102.27991,350.94111 101.99365,350.9727 101.89222,350.87831 C 101.7908,350.78395 101.76162,351.00378 101.82736,351.36686 C 101.955,352.07155 101.94297,352.11649 101.69344,351.86695 z M 111.32906,349.26007 C 111.25515,349.18618 111.12092,349.31941 111.03078,349.55615 C 110.90051,349.89826 110.92808,349.92582 111.16516,349.69053 C 111.32921,349.52768 111.40297,349.33398 111.32906,349.26007 z" id="path2689"/>
  </g>
</svg>