<?xml version="1.0" encoding="UTF-8" standalone="no"?>
<!-- Generator: Adobe Illustrator 12.0.0, SVG Export Plug-In . SVG Version: 6.00 Build 51448)  -->
<svg xmlns:dc="http://purl.org/dc/elements/1.1/" xmlns:cc="http://creativecommons.org/ns#" xmlns:rdf="http://www.w3.org/1999/02/22-rdf-syntax-ns#" xmlns:svg="http://www.w3.org/2000/svg" xmlns="http://www.w3.org/2000/svg" xmlns:xlink="http://www.w3.org/1999/xlink" xmlns:sodipodi="http://sodipodi.sourceforge.net/DTD/sodipodi-0.dtd" xmlns:inkscape="http://www.inkscape.org/namespaces/inkscape" version="1.0" width="40" height="60" viewBox="0 0 18121.9 17875.3" overflow="visible" enable-background="new 0 0 18121.891 17875.275" xml:space="preserve" id="svg2" sodipodi:version="0.32" inkscape:version="0.46dev+devel" sodipodi:docname="sampler_User1_in_suit.svg" inkscape:output_extension="org.inkscape.output.svg.inkscape" style="overflow: visible;"><metadata id="metadata1436"><rdf:RDF><cc:Work rdf:about=""><dc:format>image/svg+xml</dc:format><dc:type rdf:resource="http://purl.org/dc/dcmitype/StillImage"/></cc:Work></rdf:RDF></metadata><defs id="defs1434">
	
	
	
	
	
	
	
	
	
	
	
	
	
	
	
<radialGradient inkscape:collect="always" xlink:href="#XMLID_80_" id="radialGradient4660" gradientUnits="userSpaceOnUse" cx="8710.2324" cy="8685.3359" r="36.395599"/><linearGradient inkscape:collect="always" xlink:href="#XMLID_81_" id="linearGradient4662" gradientUnits="userSpaceOnUse" x1="8739.1768" y1="8762.1143" x2="8667.5684" y2="8706.5811"/></defs><sodipodi:namedview inkscape:window-height="744" inkscape:window-width="1280" inkscape:pageshadow="2" inkscape:pageopacity="0.0" guidetolerance="10.0" gridtolerance="10.0" objecttolerance="10.0" borderopacity="1.0" bordercolor="#666666" pagecolor="#ffffff" id="base" showgrid="true" borderlayer="true" inkscape:zoom="5.33" inkscape:cx="50" inkscape:cy="46.515666" inkscape:window-x="0" inkscape:window-y="22" inkscape:current-layer="g4648" width="40px"><inkscape:grid type="xygrid" id="grid2323" originx="0px" originy="0px" spacingx="0px" spacingy="0px"/></sodipodi:namedview>





<g id="g32" transform="matrix(28.5938, 0, 0, 28.5938, -255701, -242439)">
		<radialGradient gradientUnits="userSpaceOnUse" r="36.395599" cy="8685.3359" cx="8710.2324" id="XMLID_80_">
			<stop id="stop35" style="stop-color: rgb(255, 255, 255);" offset="0"/>
			<stop id="stop37" style="stop-color: rgb(0, 0, 0);" offset="1"/>
		</radialGradient>
		
		<linearGradient y2="8706.5811" x2="8667.5684" y1="8762.1143" x1="8739.1768" gradientUnits="userSpaceOnUse" id="XMLID_81_">
			<stop id="stop42" style="stop-color: rgb(255, 255, 255);" offset="0"/>
			<stop id="stop44" style="stop-color: rgb(0, 0, 0);" offset="1"/>
		</linearGradient>
		
		
		<g id="g4648"><g id="g4654" transform="matrix(7.58348, 0, 0, 8.08324, -56740, -61544.8)"><circle style="fill: url(#radialGradient4660) rgb(0, 0, 0);" sodipodi:ry="17.457001" sodipodi:rx="17.457001" sodipodi:cy="8679.2344" sodipodi:cx="8702.7109" id="circle39" r="17.457001" cy="8679.2344" cx="8702.7109"/><path style="fill: url(#linearGradient4662) rgb(0, 0, 0);" id="path46" d="M 8702.994,8697.618 C 8687.29,8697.618 8674.282,8720.775 8671.988,8751 L 8734,8751 C 8731.706,8720.775 8718.698,8697.618 8702.994,8697.618 z"/><polygon style="fill: rgb(198, 199, 200);" id="polygon48" points="8700.2,8707.99 8697.4,8703.14 8702.96,8698.27 8702.96,8698.27 8708.58,8703.14 8705.79,8707.99 8700.2,8707.99"/><path style="fill: rgb(198, 199, 200);" id="path50" d="M 8695.404,8737.145 L 8703.049,8747.396 L 8703.049,8708.651 L 8700.322,8708.651 L 8695.404,8737.145 z M 8705.784,8708.65 L 8703.056,8708.65 L 8703.056,8747.395 L 8710.702,8737.144 L 8705.784,8708.65 z"/></g></g>
	</g>
<g id="OUTLAND" display="none" style="display: none;" transform="translate(44.6058, -3424.79)">
	<path display="inline" d="M 18121.891,0 L 18121.891,17875.275 L 0,17875.275 L 0,0 L 18121.891,0 z M 8640,9235.275 L 9481.89,9235.275 L 9481.89,8640 L 8640,8640 L 8640,9235.275 z" id="path1431" style="fill: rgb(158, 153, 148); display: inline;"/>
</g>
</svg>