<?xml version="1.0" encoding="UTF-8" standalone="no"?>
<!-- Created with Inkscape (http://www.inkscape.org/) -->
<svg
   xmlns:dc="http://purl.org/dc/elements/1.1/"
   xmlns:cc="http://creativecommons.org/ns#"
   xmlns:rdf="http://www.w3.org/1999/02/22-rdf-syntax-ns#"
   xmlns:svg="http://www.w3.org/2000/svg"
   xmlns="http://www.w3.org/2000/svg"
   xmlns:sodipodi="http://sodipodi.sourceforge.net/DTD/sodipodi-0.dtd"
   xmlns:inkscape="http://www.inkscape.org/namespaces/inkscape"
   width="32"
   height="32"
   id="svg3755"
   sodipodi:version="0.32"
   inkscape:version="0.46"
   version="1.0"
   sodipodi:docname="spiral.svg"
   inkscape:output_extension="org.inkscape.output.svg.inkscape">
  <defs
     id="defs3757">
    <inkscape:perspective
       sodipodi:type="inkscape:persp3d"
       inkscape:vp_x="0 : 526.18109 : 1"
       inkscape:vp_y="0 : 1000 : 0"
       inkscape:vp_z="744.09448 : 526.18109 : 1"
       inkscape:persp3d-origin="372.04724 : 350.78739 : 1"
       id="perspective3763" />
  </defs>
  <sodipodi:namedview
     id="base"
     pagecolor="#ffffff"
     bordercolor="#666666"
     borderopacity="1.0"
     inkscape:pageopacity="0.0"
     inkscape:pageshadow="2"
     inkscape:zoom="7.9195959"
     inkscape:cx="-1.2438417"
     inkscape:cy="31.140139"
     inkscape:document-units="px"
     inkscape:current-layer="layer1"
     showgrid="false"
     inkscape:window-width="1280"
     inkscape:window-height="977"
     inkscape:window-x="-4"
     inkscape:window-y="-4" />
  <metadata
     id="metadata3760">
    <rdf:RDF>
      <cc:Work
         rdf:about="">
        <dc:format>image/svg+xml</dc:format>
        <dc:type
           rdf:resource="http://purl.org/dc/dcmitype/StillImage" />
      </cc:Work>
    </rdf:RDF>
  </metadata>
  <g
     inkscape:label="Ebene 1"
     inkscape:groupmode="layer"
     id="layer1">
    <path
       sodipodi:type="arc"
       style="opacity:0.86245351000000003;fill:#ffffff;fill-opacity:1;stroke:#000000;stroke-width:0.97543549;stroke-linejoin:miter;stroke-miterlimit:4;stroke-dasharray:none;stroke-opacity:1"
       id="path3765"
       sodipodi:cx="16.541248"
       sodipodi:cy="16.847712"
       sodipodi:rx="13.258252"
       sodipodi:ry="13.258252"
       d="M 29.7995,16.847712 A 13.258252,13.258252 0 1 1 3.2829962,16.847712 A 13.258252,13.258252 0 1 1 29.7995,16.847712 z"
       transform="matrix(1.0569638,0,0,1.0569638,-1.2579252,-1.9067279)" />
    <path
       sodipodi:type="spiral"
       style="fill:none;fill-rule:evenodd;stroke:#000000;stroke-width:1px;stroke-linecap:butt;stroke-linejoin:miter;stroke-opacity:1"
       id="path3767"
       sodipodi:cx="14.268405"
       sodipodi:cy="12.049487"
       sodipodi:expansion="1"
       sodipodi:revolution="3"
       sodipodi:radius="13.532015"
       sodipodi:argument="-17.978277"
       sodipodi:t0="0"
       d="M 14.268405,12.049487 C 14.705239,12.568623 13.784139,12.894455 13.405567,12.775535 C 12.37966,12.453269 12.32686,11.099127 12.81631,10.32381 C 13.691821,8.9369503 15.655476,8.9347054 16.85692,9.8713447 C 18.620088,11.245901 18.567184,13.889606 17.172595,15.50084 C 15.313827,17.648362 11.969364,17.536942 9.9542133,15.679724 C 7.4183525,13.342606 7.5898355,9.2887062 9.9121201,6.8724572 C 12.724718,3.9460559 17.492516,4.1783871 20.308273,6.9671548 C 23.626546,10.253621 23.332925,15.73792 20.076785,18.952194 C 16.317442,22.6632 10.114987,22.308021 6.5028601,18.583914 C 2.3985314,14.352348 2.8154431,7.4306202 7.0079303,3.4211039 C 11.711267,-1.0769675 19.35306,-0.59820417 23.759627,4.0629649 C 28.65175,9.2377461 28.111051,17.600186 22.980975,22.403547"
       transform="matrix(1.004913,0,0,1.0166468,1.2502159,4.5461657)" />
  </g>
</svg>
