<?xml version="1.0" encoding="UTF-8" standalone="no"?>
<!-- Created with Inkscape (http://www.inkscape.org/) -->
<svg xmlns:dc="http://purl.org/dc/elements/1.1/" xmlns:cc="http://creativecommons.org/ns#" xmlns:rdf="http://www.w3.org/1999/02/22-rdf-syntax-ns#" xmlns:svg="http://www.w3.org/2000/svg" xmlns="http://www.w3.org/2000/svg" xmlns:xlink="http://www.w3.org/1999/xlink" xmlns:sodipodi="http://sodipodi.sourceforge.net/DTD/sodipodi-0.dtd" xmlns:inkscape="http://www.inkscape.org/namespaces/inkscape" width="712.849" height="569.94196" id="svg59774" sodipodi:version="0.32" inkscape:version="0.46dev+devel" sodipodi:docbase="/home/theresa/pictures/openclipart svg" sodipodi:docname="TheresaKnott_worldlabel_ladyface_2.svg" inkscape:output_extension="org.inkscape.output.svg.inkscape" version="1.0">
  <defs id="defs59776">
    <linearGradient id="linearGradient68757">
      <stop style="stop-color: rgb(155, 62, 27); stop-opacity: 1;" offset="0" id="stop68759"/>
      <stop style="stop-color: rgb(155, 62, 27); stop-opacity: 0;" offset="1" id="stop68761"/>
    </linearGradient>
    <linearGradient id="linearGradient63349">
      <stop style="stop-color: rgb(203, 117, 94); stop-opacity: 1;" offset="0" id="stop63351"/>
      <stop style="stop-color: rgb(203, 117, 94); stop-opacity: 0;" offset="1" id="stop63353"/>
    </linearGradient>
    <linearGradient id="linearGradient63331">
      <stop style="stop-color: rgb(255, 232, 208); stop-opacity: 1;" offset="0" id="stop63333"/>
      <stop style="stop-color: rgb(244, 211, 194); stop-opacity: 1;" offset="1" id="stop63335"/>
    </linearGradient>
    <radialGradient inkscape:collect="always" xlink:href="#linearGradient63331" id="radialGradient63337" cx="355.21634" cy="730.16144" fx="355.21634" fy="730.16144" r="187.43875" gradientTransform="matrix(1, 0, 0, 1.32555, 21.3265, -658.904)" gradientUnits="userSpaceOnUse"/>
    <radialGradient inkscape:collect="always" xlink:href="#linearGradient63349" id="radialGradient63355" cx="-123.57143" cy="683.07648" fx="-123.57143" fy="683.07648" r="98.32914" gradientTransform="matrix(0.794804, 0.220374, -0.228373, 0.785131, 130.64, 174.004)" gradientUnits="userSpaceOnUse"/>
    <radialGradient inkscape:collect="always" xlink:href="#linearGradient63349" id="radialGradient65107" gradientUnits="userSpaceOnUse" gradientTransform="matrix(0.794804, 0.220374, -0.228373, 0.785131, 130.64, 174.004)" cx="-123.57143" cy="683.07648" fx="-123.57143" fy="683.07648" r="98.32914"/>
    <radialGradient inkscape:collect="always" xlink:href="#linearGradient68757" id="radialGradient68763" cx="-123.57143" cy="683.07648" fx="-123.57143" fy="683.07648" r="97.85714" gradientTransform="matrix(1, 0, 0, 0.956204, 0, 29.9158)" gradientUnits="userSpaceOnUse"/>
    <radialGradient inkscape:collect="always" xlink:href="#linearGradient63349" id="radialGradient68767" gradientUnits="userSpaceOnUse" gradientTransform="matrix(0.794804, 0.220374, -0.228373, 0.785131, 130.64, 174.004)" cx="-123.57143" cy="683.07648" fx="-123.57143" fy="683.07648" r="98.32914"/>
  </defs>
  <sodipodi:namedview id="base" pagecolor="#ffffff" bordercolor="#666666" borderopacity="1.0" inkscape:pageopacity="0.0" inkscape:pageshadow="2" inkscape:zoom="0.18756036" inkscape:cx="393.43697" inkscape:cy="246.27349" inkscape:document-units="px" inkscape:current-layer="layer4" showguides="true" inkscape:guide-bbox="true" inkscape:window-width="791" inkscape:window-height="643" inkscape:window-x="188" inkscape:window-y="68" showgrid="false"/>
  <metadata id="metadata59779">
    <rdf:RDF>
      <cc:Work rdf:about="">
        <dc:format>image/svg+xml</dc:format>
        <dc:type rdf:resource="http://purl.org/dc/dcmitype/StillImage"/>
      </cc:Work>
    </rdf:RDF>
  </metadata>
  <g inkscape:groupmode="layer" id="layer4" inkscape:label="colour" transform="translate(-17.8007, -4.92882)">
    <path style="fill: url(#radialGradient63337) rgb(0, 0, 0); fill-opacity: 1; fill-rule: evenodd; stroke: rgb(0, 0, 0); stroke-width: 1px; stroke-linecap: butt; stroke-linejoin: miter; stroke-opacity: 1;" d="M 323.57231,61.52826 C 276.42951,68.67116 215.00091,167.24256 197.85801,227.24256 C 180.71521,287.24256 192.14371,430.09976 215.00091,472.95686 C 237.85801,515.81406 283.94222,556.9236 361.08502,556.9236 C 426.79932,556.9236 492.14371,530.09976 523.57231,464.38546 C 555.00091,398.67116 592.14371,241.52826 529.28661,181.52826 C 466.42951,121.52826 370.71521,54.38546 323.57231,61.52826 z" id="path62454" sodipodi:nodetypes="csssssz"/>
    <path style="fill: rgb(91, 58, 0); fill-opacity: 1; fill-rule: evenodd; stroke: rgb(0, 0, 0); stroke-width: 1px; stroke-linecap: butt; stroke-linejoin: miter; stroke-opacity: 1;" d="M 316.24264,51.12859 C 316.24264,51.12859 313.27791,23.66566 336.24264,16.12859 C 376.4275,2.9398295 477.67105,9.7000195 539.81395,56.84288 C 601.95685,103.98573 628.38535,182.55716 621.95685,251.12859 C 615.52825,319.70006 604.81395,421.12856 613.38535,440.41426 C 621.95685,459.70006 636.24255,480.41426 662.67104,468.98576 C 689.09964,457.55716 713.38534,407.55716 712.67104,396.84286 C 711.95684,386.12856 706.95684,381.12856 712.67104,378.98576 C 718.38534,376.84286 731.95684,381.84286 726.95684,414.70006 C 721.95684,447.55716 708.38534,501.12856 704.09964,506.84286 C 699.81394,512.55716 682.67104,543.98576 666.24254,553.27146 C 649.81395,562.55716 624.81395,558.27146 616.95685,560.41426 C 609.09965,562.55716 574.09965,568.98576 566.95685,563.27146 C 559.81395,557.55716 506.95685,554.70006 499.09965,556.12856 C 491.24255,557.55716 437.67114,559.70006 435.52834,553.98576 C 433.38544,548.27146 431.95694,536.84286 431.95694,536.84286 C 431.95694,536.84286 471.95695,526.84286 496.24255,481.12856 C 520.52825,435.41426 551.24255,357.55716 549.81395,332.55716 C 548.38535,307.55716 522.67105,193.98573 514.09965,183.27145 C 505.52825,172.55716 536.24255,174.70002 536.24255,174.70002 L 553.38535,175.4143 C 553.38535,175.4143 480.34969,178.62858 453.38544,171.84287 C 426.42119,165.05716 445.52834,148.27145 445.52834,148.27145 L 439.09974,136.84287 C 439.09974,136.84287 438.38544,149.70002 435.52834,154.70002 C 432.67114,159.70002 429.81404,167.55716 429.81404,167.55716 L 367.67114,166.12859 C 367.67114,166.12859 366.24264,167.55716 364.09974,164.70002 C 361.95694,161.84287 360.52834,157.55716 361.95694,154.70002 C 363.38544,151.84287 364.09974,116.12859 355.52834,108.98573 C 346.95694,101.84287 334.81404,77.55717 326.24264,70.41431 C 317.67114,63.27145 314.09974,56.84288 314.09974,56.84288 L 316.24264,51.12859 z" id="path62452" sodipodi:nodetypes="csssssssssssssscssscczccsccsssscc"/>
    <path style="fill: rgb(91, 58, 0); fill-opacity: 1; fill-rule: evenodd; stroke: rgb(0, 0, 0); stroke-width: 1px; stroke-linecap: butt; stroke-linejoin: miter; stroke-opacity: 1;" d="M 312.33909,59.08835 C 312.33909,59.08835 282.49164,26.75361 220.30946,44.16462 C 158.12727,61.57564 140.71626,146.1434 133.2544,168.52899 C 125.79254,190.91458 98.432375,360.05011 103.40695,397.35942 C 108.38152,434.66873 123.30525,476.95262 105.89424,486.90177 C 88.483226,496.85092 58.949463,474.77061 57.258057,463.77647 C 52.283482,431.44173 23.813756,429.69416 23.813756,429.69416 C 23.813756,429.69416 21.326468,479.43991 28.78833,494.36363 C 36.250192,509.28735 48.686629,551.57124 56.148491,564.00767 C 63.610353,576.44411 262.59334,564.00767 262.59334,564.00767 L 307.36451,549.08395 C 307.36451,549.08395 238.37776,498.55171 230.67931,487.59063 C 192.84759,433.72562 193.41578,379.16713 190.83186,353.32797 C 185.85729,303.58223 202.89844,223.40186 217.45232,185.99085 C 226.37953,163.04327 250.1569,146.1434 250.1569,146.1434 L 304.87722,141.16883 C 304.87722,141.16883 314.13751,142.2784 311.65022,127.35467 C 309.16293,112.43095 297.41536,119.89281 304.87722,97.50723 C 312.33909,75.12164 304.87722,56.60106 312.33909,59.08835 z" id="path62456" sodipodi:nodetypes="cssssscssccsssccssc"/>
    <path sodipodi:type="arc" style="opacity: 0.629213; fill: url(#radialGradient65107) rgb(0, 0, 0); fill-opacity: 1; stroke: none; stroke-width: 0.944; stroke-miterlimit: 4; stroke-dasharray: none; stroke-opacity: 1;" id="path65105" sodipodi:cx="-123.57143" sodipodi:cy="683.07648" sodipodi:rx="97.85714" sodipodi:ry="93.571426" d="M -25.714287,683.07648 A 97.85714,93.571426 0 1 1 -25.714663,682.81698" sodipodi:start="0" sodipodi:end="6.280412" transform="matrix(0.708029, 0, 0, 0.725191, 333.104, -129.911)" sodipodi:open="true"/>
    <path sodipodi:type="arc" style="opacity: 0.629213; fill: url(#radialGradient68767) rgb(0, 0, 0); fill-opacity: 1; stroke: none; stroke-width: 0.944; stroke-miterlimit: 4; stroke-dasharray: none; stroke-opacity: 1;" id="path68765" sodipodi:cx="-123.57143" sodipodi:cy="683.07648" sodipodi:rx="97.85714" sodipodi:ry="93.571426" d="M -25.714287,683.07648 A 97.85714,93.571426 0 1 1 -25.714663,682.81698" sodipodi:start="0" sodipodi:end="6.280412" transform="matrix(0.708029, 0, 0, 0.725191, 557.39, -137.054)" sodipodi:open="true"/>
  </g>
  <g inkscape:label="Layer 1" inkscape:groupmode="layer" id="layer1" transform="translate(-17.8007, -4.92882)">
    <path style="fill: rgb(0, 0, 0);" d="M 82.900272,573.95725 C 32.641122,567.87363 36.477362,503.60704 23.323902,466.56212 C 7.0992524,440.00015 29.892822,402.31934 49.481972,442.41277 C 57.069752,472.3274 99.093882,519.86434 111.4984,466.33184 C 113.77416,416.02568 94.027852,366.04258 102.72413,314.94332 C 114.40581,234.20849 127.8646,151.0841 169.90817,79.67355 C 201.49688,37.0996 266.38066,22.81198 312.3671,48.99445 C 324.4595,-8.5727005 397.51843,4.0548495 440.64684,11.64656 C 504.86934,32.01048 577.01885,62.21883 605.58616,128.09228 C 632.18504,182.7431 620.02419,246.01831 619.90689,304.56212 C 618.09309,352.9164 609.97259,403.74483 622.96349,450.82935 C 654.66353,501.43555 708.93272,424.30315 709.31012,387.88135 C 744.72186,354.83295 727.33973,447.15027 718.64413,468.70372 C 711.57068,511.8899 685.05546,565.89192 633.45504,562.0426 C 580.64302,576.84144 527.43929,554.24511 473.86715,559.31172 C 438.13661,561.75691 428.07376,535.84461 393.2165,559.16215 C 351.48091,572.93436 311.53947,540.27816 276.56277,564.66704 C 220.65077,567.14586 164.70769,568.23752 109.17538,574.81885 C 100.41216,574.96386 91.627142,574.84415 82.900272,573.95725 z M 113.11713,570.32059 C 95.194482,569.49009 95.285882,571.33628 113.11713,570.32059 z M 87.554692,569.379 C 83.171282,567.94655 87.121032,571.30401 87.554692,569.379 z M 140.12879,568.37504 C 131.1677,566.70234 138.51228,570.03506 140.12879,568.37504 z M 135.86713,566.79417 C 188.05423,553.63279 244.86697,568.33944 295.69897,551.91133 C 259.90947,526.18441 220.61574,499.56161 205.77393,454.53484 C 179.66905,404.24393 182.88772,345.87937 182.2428,290.85265 C 194.31236,251.14715 196.25567,205.22826 218.8539,172.06212 C 232.23195,175.09784 253.4269,129.21562 214.80708,148.2997 C 192.42689,165.24966 180.95311,154.10177 210.4045,142.41076 C 252.86603,133.91228 331.89728,166.59659 300.7553,94.34067 C 305.00128,115.25786 292.70791,137.67787 293.9514,101.82412 C 297.98316,85.71503 330.66324,54.78825 289.44501,45.97331 C 236.36094,31.24555 175.36593,61.28985 159.5472,115.06212 C 130.2129,177.63469 119.74279,246.67275 109.68678,314.34273 C 104.72329,359.61182 112.98761,404.06132 119.14047,448.58692 C 130.89848,504.30403 58.114402,514.4582 51.190892,458.68928 C 43.061682,436.17103 14.700182,416.07694 27.726472,456.52648 C 41.857842,496.32923 37.907742,574.87856 98.919842,567.68672 C 111.2375,567.50382 123.56088,567.40486 135.86713,566.79417 z M 244.36713,519.98881 C 248.01912,513.53859 248.69021,526.8396 244.36713,519.98881 z M 247.36713,520.06211 C 244.81211,516.4747 244.8122,523.64956 247.36713,520.06211 z M 233.258,513.81211 C 214.89417,498.59896 196.7913,446.12691 225.27217,491.81795 C 226.03577,494.76347 251.58556,522.44567 233.258,513.81211 z M 235.36713,509.73643 C 228.01435,501.73183 228.81283,504.82821 235.36713,509.73643 z M 159.55463,564.379 C 155.17134,562.94656 159.12102,566.30402 159.55463,564.379 z M 195.61713,563.31626 C 168.44247,562.54666 168.49432,564.25661 195.61713,563.31626 z M 597.64733,563.3314 C 577.49632,561.94532 593.82717,564.70758 597.64733,563.3314 z M 209.55463,562.379 C 205.17134,560.94656 209.12102,564.30402 209.55463,562.379 z M 246.14362,562.33524 C 228.22118,560.9122 242.7667,563.74729 246.14362,562.33524 z M 581.55464,562.379 C 577.17129,560.94655 581.121,564.30402 581.55464,562.379 z M 605.55464,562.379 C 601.17129,560.94655 605.121,564.30402 605.55464,562.379 z M 255.55463,561.379 C 251.17134,559.94656 255.12102,563.30402 255.55463,561.379 z M 607.36714,560.01707 C 655.66882,562.69824 700.73308,533.62292 707.97169,483.62891 C 711.93076,459.19259 737.06939,389.39047 716.19212,388.40629 C 713.69056,429.45691 663.10134,503.59576 621.37298,461.95194 C 600.27747,421.40694 612.29208,372.51864 611.16663,328.47844 C 614.81045,267.56709 623.98392,203.63515 605.33516,144.4964 C 581.92319,74.8905 509.969,40.77559 444.84241,20.09323 C 404.53163,10.78009 323.87462,-3.9050905 320.2168,55.73833 C 346.6356,85.00487 374.77372,120.2358 368.8671,162.56211 C 393.28963,158.02202 436.30278,180.08923 437.3671,142.71697 C 450.74371,124.92272 453.06636,191.55372 486.2108,171.0775 C 499.55837,174.46864 577.0321,167.21095 548.38466,179.0598 C 518.00673,173.06 507.15663,180.74713 525.99134,210.56212 C 548.09525,267.81154 562.30301,331.6181 541.43347,391.53093 C 535.20375,422.62769 506.05657,472.31286 500.91605,484.89626 C 509.93768,461.34846 537.14236,439.05062 514.5288,476.96541 C 506.14157,512.12502 439.01294,522.25459 444.86715,551.66012 C 494.6459,553.0232 544.37245,554.01829 593.64492,561.57309 L 600.80164,561.009 L 607.36715,560.01709 L 607.36714,560.01707 z M 465.36716,166.06211 C 470.43165,158.11696 470.43149,174.00731 465.36716,166.06211 z M 468.36716,166.06211 C 465.81217,162.47469 465.81224,169.64957 468.36716,166.06211 z M 458.90204,159.62519 C 446.92775,141.77269 444.19922,119.95706 462.58947,148.84189 C 466.56734,151.3186 465.16464,168.7749 458.90204,159.62519 z M 458.49124,146.79545 C 455.41791,144.35876 461.47061,152.1643 458.49124,146.79545 z M 454.36716,139.68455 C 450.98783,135.62787 449.6387,136.92263 454.36716,139.68455 z M 382.3671,156.06211 C 387.43161,148.11691 387.43151,164.00736 382.3671,156.06211 z M 385.3671,155.50309 C 382.48684,153.59755 383.03346,158.93789 385.3671,155.50309 z M 378.01691,144.30451 C 384.27239,123.48995 326.19128,54.14227 365.6088,88.83072 C 370.56294,101.81168 391.12822,137.47843 378.01691,144.30451 z M 353.926,80.53033 C 344.33642,75.02823 359.5154,85.731 353.926,80.53033 z M 274.08063,560.32206 C 258.65721,559.45602 260.33972,561.40029 274.08063,560.32206 z M 565.12882,560.37504 C 556.16774,558.70235 563.51223,562.03504 565.12882,560.37504 z M 616.55464,560.379 C 612.17129,558.94655 616.121,562.30402 616.55464,560.379 z M 356.6171,558.35636 C 346.64058,556.85241 354.66573,559.88804 356.6171,558.35636 z M 370.6171,558.35636 C 360.64058,556.85241 368.66573,559.88804 370.6171,558.35636 z M 343.5546,557.379 C 339.17137,555.94656 343.12102,559.30402 343.5546,557.379 z M 380.5546,557.379 C 376.17137,555.94656 380.12102,559.30402 380.5546,557.379 z M 292.6171,556.39982 C 287.11024,554.77677 291.61774,558.1501 292.6171,556.39982 z M 538.63091,556.35819 C 527.41481,554.77464 536.57906,557.92809 538.63091,556.35819 z M 647.11714,556.37278 C 639.37168,554.81656 645.63012,557.9813 647.11714,556.37278 z M 380.8671,553.92252 C 446.08307,544.94929 497.64054,493.07081 518.98203,432.56212 C 544.94826,377.85848 554.25281,314.24118 533.94607,256.06212 C 528.92822,235.80708 495.23066,202.36388 508.96787,186.72933 C 522.8653,220.38531 518.13202,205.13009 508.10174,179.96751 C 477.84181,175.42005 432.83235,185.75429 443.36715,151.99108 C 436.79062,182.60709 389.30799,169.2342 364.46142,167.43845 C 372.8372,147.99807 339.79546,82.97307 343.34504,96.36263 C 360.03668,143.98544 290.73606,43.48972 337.73941,87.56213 C 313.5727,37.52836 301.55533,104.40723 311.96458,128.03882 C 323.33793,159.01012 289.0628,147.05145 272.44777,148.51074 C 234.51431,139.62928 223.28448,191.01321 209.60306,216.11806 C 193.83899,259.04408 183.63314,303.93811 189.8692,349.89355 C 188.01766,401.62818 206.28837,452.52289 236.95153,493.56457 C 252.55855,486.12562 261.05195,520.46526 270.11943,524.24483 C 302.1289,546.98938 341.40551,560.07709 380.8671,553.92252 z M 350.3671,491.06211 C 294.61769,494.78265 263.51369,440.43287 245.10877,396.0788 C 240.27705,368.04995 236.83371,380.38535 222.88361,387.8458 C 230.53093,361.97519 257.87314,350.10642 248.30953,383.14491 C 265.05804,425.58071 289.69737,480.85076 342.3671,483.11012 C 393.30961,492.68573 440.60632,459.63871 460.16155,413.83906 C 472.26531,392.30598 483.59202,359.51023 462.39614,356.22852 C 488.71143,344.51365 534.44586,392.20483 484.34258,365.74544 C 473.3685,425.83845 429.96715,493.01245 361.86886,491.46994 L 354.72411,491.7287 L 350.3671,491.06212 L 350.3671,491.06211 z M 357.5546,488.379 C 353.17137,486.94656 357.12102,490.30402 357.5546,488.379 z M 367.12879,487.37504 C 358.1677,485.70234 365.51228,489.03506 367.12879,487.37504 z M 342.6171,486.39982 C 337.11024,484.77677 341.61774,488.1501 342.6171,486.39982 z M 302.3671,474.68455 C 298.98758,470.62773 297.63898,471.92275 302.3671,474.68455 z M 437.49469,454.31211 C 440.96514,450.05007 430.95997,459.4689 437.49469,454.31211 z M 447.49472,443.31211 C 450.9651,439.05009 440.96009,448.46889 447.49472,443.31211 z M 480.05423,367.30045 C 478.39423,368.91704 481.72692,376.26153 480.05423,367.30045 z M 473.63089,358.35819 C 462.41481,356.77464 471.57909,359.92809 473.63089,358.35819 z M 231.71381,484.85502 C 229.17466,471.87559 244.48871,487.25968 231.71381,484.85502 z M 339.82169,233.60758 C 329.69887,192.42085 380.77731,241.33697 339.82169,233.60758 z M 378.28049,234.78031 C 362.44068,190.61001 419.41152,239.38623 378.28049,234.78031 z M 393.91901,207.91444 C 349.05339,193.98903 423.3909,191.41425 411.18098,212.61819 C 405.08353,213.27868 399.70668,208.61683 393.91901,207.91444 z M 315.9386,209.4907 C 319.83953,182.9804 381.50063,201.52066 329.0416,207.90909 L 320.00483,210.87471 L 315.9386,209.49069 L 315.9386,209.4907 z M 344.12879,199.37504 C 335.1677,197.70234 342.51228,201.03506 344.12879,199.37504 z M 450.29758,183.47831 C 449.07536,168.51594 464.09948,189.68542 450.29758,183.47831 z M 352.4133,147.61774 C 350.04849,135.17162 365.75734,150.91084 352.4133,147.61774 z M 350.29761,134.47831 C 350.76829,120.50728 362.12031,139.77786 350.29761,134.47831 z M 346.29761,120.47831 C 345.07532,105.51602 360.09942,126.68532 346.29761,120.47831 z M 470.08063,555.32206 C 454.65699,554.45602 456.34002,556.4003 470.08063,555.32206 z M 526.14359,555.33524 C 508.22121,553.91221 522.76664,556.74727 526.14359,555.33524 z M 653.61714,555.39982 C 648.11029,553.77677 652.6178,557.1501 653.61714,555.39982 z M 449.61716,554.39982 C 444.11029,552.77676 448.61777,556.1501 449.61716,554.39982 z M 503.16464,554.31968 C 482.85619,553.51474 481.0538,555.29228 503.16464,554.31968 z M 297.97129,550.33292 C 295.71796,551.26767 300.07291,554.29255 297.97129,550.33292 z M 438.0231,544.79307 C 436.20575,545.99573 439.84704,551.45739 438.0231,544.79307 z M 674.86715,546.06211 C 679.98293,538.90982 667.40452,553.33469 674.86715,546.06211 z M 689.49471,531.31211 C 692.52416,526.66079 683.97668,537.37239 689.49471,531.31211 z M 256.36713,513.68455 C 252.98758,509.62776 251.63892,510.92273 256.36713,513.68455 z M 254.36713,507.68455 C 250.98758,503.62776 249.63892,504.92273 254.36713,507.68455 z M 491.5994,500.14542 C 499.94149,492.62441 478.3165,508.90668 491.5994,500.14542 z M 243.36713,500.74918 C 236.76962,493.52027 233.82964,492.81561 243.36713,500.74918 z M 488.75406,498.87913 C 484.91632,497.56179 486.53292,501.72481 488.75406,498.87913 z M 80.617192,495.39982 C 75.110332,493.77678 79.617862,497.1501 80.617192,495.39982 z M 96.128792,495.37504 C 87.167742,493.70239 94.512242,497.03501 96.128792,495.37504 z M 494.36716,493.56211 C 501.42833,484.67195 484.95624,502.5885 494.36716,493.56211 z M 76.367192,494.68455 C 72.987962,490.62791 71.638592,491.92257 76.367192,494.68455 z M 33.971322,491.33292 C 31.717932,492.26764 36.072902,495.29257 33.971322,491.33292 z M 709.02943,488.81211 C 707.2792,489.81154 710.65251,494.31896 709.02943,488.81211 z M 506.49472,483.31211 C 509.9651,479.05009 499.96009,488.46889 506.49472,483.31211 z M 31.971322,481.33292 C 29.717932,482.26764 34.072902,485.29257 31.971322,481.33292 z M 631.36714,469.74918 C 624.7697,462.5203 621.82962,461.81554 631.36714,469.74918 z M 671.86715,464.06211 C 680.81656,453.41473 660.56672,474.85324 671.86715,464.06211 z M 27.029422,462.81211 C 25.279102,463.81152 28.652522,468.31897 27.029422,462.81211 z M 117.10858,447.85129 C 116.0505,462.91128 117.96012,464.60259 117.10858,447.85129 z M 678.36715,456.56211 C 685.42834,447.67195 668.95625,465.5885 678.36715,456.56211 z M 716.97132,456.33292 C 714.71798,457.26759 719.07278,460.29262 716.97132,456.33292 z M 23.094002,434.28568 C 21.682252,437.66265 24.516702,452.20806 23.094002,434.28568 z M 43.867192,442.06211 C 28.873462,427.72899 56.508752,456.24503 43.867192,442.06211 z M 116.08472,433.32584 C 114.60771,435.62452 117.50452,444.2987 116.08472,433.32584 z M 612.97132,431.33292 C 610.71798,432.26759 615.07278,435.29262 612.97132,431.33292 z M 699.36716,431.56211 C 706.42834,422.67195 689.95625,440.5885 699.36716,431.56211 z M 36.367192,432.74918 C 29.769702,425.52013 26.829692,424.81577 36.367192,432.74918 z M 612.11626,367.87943 C 611.3184,372.92186 612.16925,440.21101 612.23619,389.01033 C 612.23509,381.96656 612.20702,374.9227 612.11626,367.87943 z M 724.05648,421.31211 C 722.44798,422.79919 725.61272,429.05758 724.05648,421.31211 z M 113.97132,419.33292 C 111.71793,420.26764 116.0729,423.29257 113.97132,419.33292 z M 706.97132,414.33292 C 704.71798,415.26759 709.07278,418.29262 706.97132,414.33292 z M 727.05423,402.30045 C 725.39424,403.91705 728.72692,411.26153 727.05423,402.30045 z M 109.05652,394.31211 C 107.44773,395.79916 110.61297,402.05759 109.05652,394.31211 z M 728.07288,392.81211 C 726.54127,394.76356 729.57686,402.7886 728.07288,392.81211 z M 537.97132,395.33292 C 535.71798,396.26759 540.07278,399.29262 537.97132,395.33292 z M 108.05652,386.31211 C 106.44773,387.79916 109.61297,394.05759 108.05652,386.31211 z M 715.49471,382.31211 C 718.52416,377.66079 709.97668,388.37239 715.49471,382.31211 z M 187.97132,379.33292 C 185.71793,380.26764 190.0729,383.29257 187.97132,379.33292 z M 720.61716,380.39982 C 715.11029,378.77676 719.61778,382.1501 720.61716,380.39982 z M 106.11298,338.81211 C 105.17254,365.93496 106.8827,365.98669 106.11298,338.81211 z M 545.02944,364.81211 C 543.27919,365.81153 546.65251,370.31896 545.02944,364.81211 z M 548.02944,347.81211 C 546.27919,348.81153 549.65251,353.31896 548.02944,347.81211 z M 185.08472,341.32587 C 183.60771,343.62456 186.50453,352.29866 185.08472,341.32587 z M 613.09937,332.81211 C 611.74011,336.56954 614.45312,351.69092 613.09937,332.81211 z M 185.02307,329.7931 C 183.20579,330.9958 186.84705,336.45734 185.02307,329.7931 z M 551.08473,326.32587 C 549.60757,328.62452 552.50459,337.29867 551.08473,326.32587 z M 613.97132,324.33295 C 611.718,325.26761 616.07276,328.29259 613.97132,324.33295 z M 184.11133,300.35783 C 183.10182,319.37581 184.92702,321.093 184.11133,300.35783 z M 615.07288,307.81211 C 613.54127,309.76356 616.57685,317.7886 615.07288,307.81211 z M 108.09052,303.81211 C 106.66016,306.67157 109.50995,318.24206 108.09052,303.81211 z M 547.97132,304.33295 C 545.718,305.26761 550.07276,308.29259 547.97132,304.33295 z M 616.97132,289.33295 C 614.718,290.26761 619.07276,293.29259 616.97132,289.33295 z M 545.05423,282.30045 C 543.39423,283.91704 546.72692,291.26153 545.05423,282.30045 z M 543.97132,275.33295 C 541.718,276.26761 546.07276,279.29259 543.97132,275.33295 z M 187.97132,272.33295 C 185.71795,273.26767 190.07289,276.29253 187.97132,272.33295 z M 115.97132,259.33295 C 113.71795,260.26767 118.07289,263.29253 115.97132,259.33295 z M 617.97132,259.33295 C 615.718,260.26761 620.07276,263.29259 617.97132,259.33295 z M 619.11437,217.31211 C 617.95972,236.03225 619.82196,260.17123 619.11437,217.31211 z M 120.97132,236.33295 C 118.71795,237.26767 123.07289,240.29253 120.97132,236.33295 z M 525.97132,229.33295 C 523.718,230.26761 528.07276,233.29259 525.97132,229.33295 z M 123.02307,220.7931 C 121.20579,221.9958 124.84705,227.45734 123.02307,220.7931 z M 523.97132,222.33295 C 521.718,223.26761 526.07276,226.29259 523.97132,222.33295 z M 124.02942,215.81211 C 122.2791,216.81152 125.65252,221.31897 124.02942,215.81211 z M 520.48923,213.38712 C 516.84597,208.81053 523.20358,220.76525 520.48923,213.38712 z M 206.02942,211.81211 C 204.2791,212.81152 207.65252,217.31897 206.02942,211.81211 z M 207.74872,208.51017 C 206.34016,204.691 205.90675,213.57317 207.74872,208.51017 z M 522.97132,206.33295 C 520.718,207.26761 525.07276,210.29259 522.97132,206.33295 z M 208.75409,204.87913 C 204.91621,203.5618 206.53306,207.72479 208.75409,204.87913 z M 128.02942,199.81211 C 126.2791,200.81152 129.65252,205.31897 128.02942,199.81211 z M 211.16052,201.02143 C 217.00753,184.89456 204.26182,208.76052 211.16052,201.02143 z M 215.36713,193.4441 C 210.95308,190.53809 212.33834,196.63586 215.36713,193.4441 z M 131.02307,184.7931 C 129.20579,185.9958 132.84705,191.45734 131.02307,184.7931 z M 217.72919,182.56211 C 223.66096,173.07634 210.05259,192.04396 217.72919,182.56211 z M 500.61716,173.32172 C 484.01384,172.47897 484.11564,174.35278 500.61716,173.32172 z M 471.11716,172.32709 C 450.01469,171.00088 466.9124,173.65739 471.11716,172.32709 z M 615.07288,166.81211 C 613.54127,168.76356 616.57685,176.7886 615.07288,166.81211 z M 227.49469,170.31211 C 230.52416,165.66075 221.97666,176.37239 227.49469,170.31211 z M 386.57801,165.32072 C 369.82678,164.46924 371.51798,166.37871 386.57801,165.32072 z M 416.0806,165.32203 C 400.65719,164.45603 402.33976,166.40032 416.0806,165.32203 z M 235.49469,159.31211 C 238.52416,154.66075 229.97666,165.37239 235.49469,159.31211 z M 239.49469,154.31211 C 242.96514,150.05007 232.95997,159.4689 239.49469,154.31211 z M 196.86713,153.06211 C 201.98282,145.90981 189.40465,160.33463 196.86713,153.06211 z M 299.6662,144.31892 C 278.0386,143.52306 276.22731,145.28129 299.6662,144.31892 z M 253.55463,143.379 C 249.17134,141.94656 253.12102,145.30402 253.55463,143.379 z M 267.61713,143.33872 C 253.18714,141.91918 264.75767,144.76915 267.61713,143.33872 z M 308.0542,129.30045 C 306.39417,130.91705 309.72698,138.26152 308.0542,129.30045 z M 365.02939,128.81211 C 363.27914,129.81154 366.65251,134.31895 365.02939,128.81211 z M 306.97129,122.33295 C 304.71798,123.26769 309.0729,126.29252 306.97129,122.33295 z M 157.74872,114.51017 C 156.34016,110.691 155.90675,119.57317 157.74872,114.51017 z M 592.36714,111.68455 C 588.98781,107.62784 587.63875,108.92265 592.36714,111.68455 z M 304.094,96.2857 C 302.68225,99.66267 305.5167,114.20804 304.094,96.2857 z M 585.36714,99.77033 C 570.70755,84.75991 576.04437,91.78115 585.36714,99.77033 z M 346.3671,90.73643 C 339.01441,82.7319 339.81276,85.82817 346.3671,90.73643 z M 564.36714,78.74921 C 557.76977,71.52035 554.82957,70.81551 564.36714,78.74921 z M 184.86713,70.06213 C 193.81646,59.4147 173.56685,80.85317 184.86713,70.06213 z M 332.3671,72.75829 C 325.45812,65.34043 322.05371,63.84684 332.3671,72.75829 z M 193.49469,62.31213 C 196.52417,57.66076 187.97665,68.37237 193.49469,62.31213 z M 311.3671,53.68458 C 307.98765,49.62779 306.63892,50.92267 311.3671,53.68458 z M 317.07291,46.81213 C 315.54117,48.76357 318.57698,56.78859 317.07291,46.81213 z M 235.55463,42.379 C 231.17134,40.94654 235.12103,44.30405 235.55463,42.379 z M 287.09809,42.36913 C 280.5072,40.8892 285.8183,44.02734 287.09809,42.36913 z M 279.63092,41.35819 C 268.41477,39.77462 277.5791,42.92811 279.63092,41.35819 z M 327.49469,26.31213 C 330.52417,21.66076 321.97665,32.37237 327.49469,26.31213 z M 353.5546,12.379 C 349.17136,10.94655 353.12103,14.30405 353.5546,12.379 z M 420.5546,11.379 C 416.17136,9.9465495 420.12103,13.30405 420.5546,11.379 z M 390.1171,9.3188095 C 369.55302,8.5096395 369.62879,10.3081 390.1171,9.3188095 z" id="path61575"/>
  </g>
</svg>