<?xml version="1.0" encoding="UTF-8" standalone="no"?>
<!-- Created with Inkscape (http://www.inkscape.org/) -->

<svg
   xmlns:dc="http://purl.org/dc/elements/1.1/"
   xmlns:cc="http://creativecommons.org/ns#"
   xmlns:rdf="http://www.w3.org/1999/02/22-rdf-syntax-ns#"
   xmlns:svg="http://www.w3.org/2000/svg"
   xmlns="http://www.w3.org/2000/svg"
   xmlns:xlink="http://www.w3.org/1999/xlink"
   xmlns:sodipodi="http://sodipodi.sourceforge.net/DTD/sodipodi-0.dtd"
   xmlns:inkscape="http://www.inkscape.org/namespaces/inkscape"
   height="48"
   id="svg2"
   inkscape:export-filename="/home/lapo/Icone/svn/gnome-icon-theme/scalable/categories/applications-engineering.png"
   inkscape:export-xdpi="90"
   inkscape:export-ydpi="90"
   inkscape:output_extension="org.inkscape.output.svg.inkscape"
   inkscape:version="0.48.2 r9819"
   sodipodi:docname="applications-engineering-2.svg"
   sodipodi:version="0.32"
   version="1.0"
   width="48">
  <metadata
     id="metadata49124">
    <rdf:RDF>
      <cc:Work
         rdf:about="">
        <dc:title></dc:title>
        <dc:description />
        <dc:subject>
          <rdf:Bag>
            <rdf:li>unsorted</rdf:li>
          </rdf:Bag>
        </dc:subject>
        <dc:publisher>
          <cc:Agent
             rdf:about="http://www.openclipart.org/">
            <dc:title>Open Clip Art Library, Source: GNOME Icon Theme, Source: GNOME Icon Theme, Source: GNOME Icon Theme, Source: GNOME Icon Theme</dc:title>
          </cc:Agent>
        </dc:publisher>
        <dc:creator>
          <cc:Agent>
            <dc:title>Lapo Calamandrei</dc:title>
          </cc:Agent>
        </dc:creator>
        <dc:rights>
          <cc:Agent>
            <dc:title>Lapo Calamandrei</dc:title>
          </cc:Agent>
        </dc:rights>
        <dc:date>2006-06-10</dc:date>
        <dc:format>image/svg+xml</dc:format>
        <dc:type
           rdf:resource="http://purl.org/dc/dcmitype/StillImage" />
        <cc:license
           rdf:resource="http://creativecommons.org/licenses/GPL/2.0/" />
        <dc:language>en</dc:language>
      </cc:Work>
    </rdf:RDF>
  </metadata>
  <defs
     id="defs4">
    <linearGradient
       id="linearGradient7002"
       inkscape:collect="always">
      <stop
         id="stop7004"
         offset="0"
         style="stop-color:#eeeeec;stop-opacity:1" />
      <stop
         id="stop7006"
         offset="1"
         style="stop-color:#babdb6;stop-opacity:1" />
    </linearGradient>
    <linearGradient
       id="linearGradient6992">
      <stop
         id="stop6994"
         offset="0"
         style="stop-color:#ffffff;stop-opacity:0.15384616;" />
      <stop
         id="stop7000"
         offset="0.51020408"
         style="stop-color:#ffffff;stop-opacity:1;" />
      <stop
         id="stop6996"
         offset="1"
         style="stop-color:#ffffff;stop-opacity:0;" />
    </linearGradient>
    <linearGradient
       id="linearGradient7007"
       inkscape:collect="always">
      <stop
         id="stop7009"
         offset="0"
         style="stop-color:#c4a000;stop-opacity:1;" />
      <stop
         id="stop7011"
         offset="1"
         style="stop-color:#c4a000;stop-opacity:0;" />
    </linearGradient>
    <linearGradient
       id="linearGradient7447"
       inkscape:collect="always">
      <stop
         id="stop7449"
         offset="0"
         style="stop-color:#ffffff;stop-opacity:1;" />
      <stop
         id="stop7451"
         offset="1"
         style="stop-color:#ffffff;stop-opacity:0;" />
    </linearGradient>
    <linearGradient
       id="linearGradient7233"
       inkscape:collect="always">
      <stop
         id="stop7235"
         offset="0"
         style="stop-color:#000000;stop-opacity:1;" />
      <stop
         id="stop7237"
         offset="1"
         style="stop-color:#000000;stop-opacity:0;" />
    </linearGradient>
    <linearGradient
       id="linearGradient7223"
       inkscape:collect="always">
      <stop
         id="stop7225"
         offset="0"
         style="stop-color:#fce94f;stop-opacity:0.78431374" />
      <stop
         id="stop7227"
         offset="1"
         style="stop-color:#edd400;stop-opacity:0.78431374" />
    </linearGradient>
    <linearGradient
       id="linearGradient7215"
       inkscape:collect="always">
      <stop
         id="stop7217"
         offset="0"
         style="stop-color:#ffffff;stop-opacity:1;" />
      <stop
         id="stop7219"
         offset="1"
         style="stop-color:#ffffff;stop-opacity:0;" />
    </linearGradient>
    <linearGradient
       id="linearGradient7207"
       inkscape:collect="always">
      <stop
         id="stop7209"
         offset="0"
         style="stop-color:#ffffff;stop-opacity:1;" />
      <stop
         id="stop7211"
         offset="1"
         style="stop-color:#ffffff;stop-opacity:0;" />
    </linearGradient>
    <linearGradient
       id="linearGradient7010">
      <stop
         id="stop7012"
         offset="0"
         style="stop-color:#888a85;stop-opacity:1" />
      <stop
         id="stop7014"
         offset="1"
         style="stop-color:#babdb6;stop-opacity:1;" />
    </linearGradient>
    <linearGradient
       id="linearGradient6979"
       inkscape:collect="always">
      <stop
         id="stop6981"
         offset="0"
         style="stop-color:#ffffff;stop-opacity:1;" />
      <stop
         id="stop6983"
         offset="1"
         style="stop-color:#ffffff;stop-opacity:0;" />
    </linearGradient>
    <linearGradient
       id="linearGradient6969"
       inkscape:collect="always">
      <stop
         id="stop6973"
         offset="0"
         style="stop-color:#000000;stop-opacity:1;" />
      <stop
         id="stop6975"
         offset="1"
         style="stop-color:#000000;stop-opacity:0;" />
    </linearGradient>
    <linearGradient
       id="linearGradient6967"
       inkscape:collect="always">
      <stop
         id="stop6969"
         offset="0"
         style="stop-color:#ffffff;stop-opacity:1;" />
      <stop
         id="stop6971"
         offset="1"
         style="stop-color:#ffffff;stop-opacity:0;" />
    </linearGradient>
    <linearGradient
       id="linearGradient7065">
      <stop
         id="stop7067"
         offset="0"
         style="stop-color:#888a85;stop-opacity:1;" />
      <stop
         id="stop7073"
         offset="0.70408165"
         style="stop-color:#cfd0ce;stop-opacity:1;" />
      <stop
         id="stop7069"
         offset="1"
         style="stop-color:#888a85;stop-opacity:1;" />
    </linearGradient>
    <linearGradient
       id="linearGradient7033"
       inkscape:collect="always">
      <stop
         id="stop7035"
         offset="0"
         style="stop-color:#000000;stop-opacity:1;" />
      <stop
         id="stop7037"
         offset="1"
         style="stop-color:#000000;stop-opacity:0;" />
    </linearGradient>
    <linearGradient
       id="linearGradient6978"
       inkscape:collect="always">
      <stop
         id="stop6980"
         offset="0"
         style="stop-color:#babdb6;stop-opacity:1" />
      <stop
         id="stop6982"
         offset="1"
         style="stop-color:#555753;stop-opacity:0" />
    </linearGradient>
    <linearGradient
       id="linearGradient6970"
       inkscape:collect="always">
      <stop
         id="stop6972"
         offset="0"
         style="stop-color:#ffffff;stop-opacity:1" />
      <stop
         id="stop6974"
         offset="1"
         style="stop-color:#eeeeec;stop-opacity:0;" />
    </linearGradient>
    <linearGradient
       id="linearGradient6939">
      <stop
         id="stop6941"
         offset="0"
         style="stop-color:#babdb6;stop-opacity:1;" />
      <stop
         id="stop7051"
         offset="0.24743238"
         style="stop-color:#ededed;stop-opacity:1;" />
      <stop
         id="stop7053"
         offset="0.53371018"
         style="stop-color:#b6b9b1;stop-opacity:1;" />
      <stop
         id="stop7049"
         offset="0.83191627"
         style="stop-color:#e9eae8;stop-opacity:1;" />
      <stop
         id="stop6943"
         offset="1"
         style="stop-color:#b5b9b2;stop-opacity:1;" />
    </linearGradient>
    <radialGradient
       cx="28.637825"
       cy="43.934135"
       fx="28.637825"
       fy="43.934135"
       gradientTransform="matrix(1,0,0,0.2982456,0,30.830973)"
       gradientUnits="userSpaceOnUse"
       id="radialGradient6977"
       inkscape:collect="always"
       r="10.076272"
       xlink:href="#linearGradient6969" />
    <linearGradient
       gradientTransform="translate(3,0)"
       gradientUnits="userSpaceOnUse"
       id="linearGradient7133"
       inkscape:collect="always"
       x1="13.5"
       x2="38.758255"
       xlink:href="#linearGradient7010"
       y1="-2.3713188"
       y2="51.564079" />
    <linearGradient
       gradientTransform="translate(13,0)"
       gradientUnits="userSpaceOnUse"
       id="linearGradient7139"
       inkscape:collect="always"
       x1="3.7123106"
       x2="3.7123106"
       xlink:href="#linearGradient6978"
       y1="3.5268352"
       y2="5.0105686" />
    <linearGradient
       gradientTransform="translate(3,0)"
       gradientUnits="userSpaceOnUse"
       id="linearGradient7141"
       inkscape:collect="always"
       x1="23.125"
       x2="29.625"
       xlink:href="#linearGradient6979"
       y1="1.4999999"
       y2="78.125" />
    <linearGradient
       gradientTransform="translate(16,2)"
       gradientUnits="userSpaceOnUse"
       id="linearGradient7143"
       inkscape:collect="always"
       x1="9.53125"
       x2="11.467819"
       xlink:href="#linearGradient6967"
       y1="17.5625"
       y2="17.5625" />
    <linearGradient
       gradientTransform="matrix(0.5,0,0,1,27.5,1)"
       gradientUnits="userSpaceOnUse"
       id="linearGradient7145"
       inkscape:collect="always"
       x1="12.6875"
       x2="12.6875"
       xlink:href="#linearGradient7033"
       y1="17.550121"
       y2="21.500893" />
    <linearGradient
       gradientTransform="matrix(0.5,0,0,1,21.5,1)"
       gradientUnits="userSpaceOnUse"
       id="linearGradient7147"
       inkscape:collect="always"
       x1="12.6875"
       x2="12.6875"
       xlink:href="#linearGradient7033"
       y1="17.550121"
       y2="21.500893" />
    <linearGradient
       gradientTransform="translate(18,0)"
       gradientUnits="userSpaceOnUse"
       id="linearGradient7149"
       inkscape:collect="always"
       x1="20.461903"
       x2="20.461903"
       xlink:href="#linearGradient7065"
       y1="15.32668"
       y2="11.746678" />
    <linearGradient
       gradientTransform="translate(13,0)"
       gradientUnits="userSpaceOnUse"
       id="linearGradient7151"
       inkscape:collect="always"
       x1="3.800699"
       x2="3.800699"
       xlink:href="#linearGradient6970"
       y1="9.5814371"
       y2="7.9975319" />
    <linearGradient
       gradientTransform="translate(3,0)"
       gradientUnits="userSpaceOnUse"
       id="linearGradient7153"
       inkscape:collect="always"
       x1="23.125"
       x2="29.625"
       xlink:href="#linearGradient6979"
       y1="1.4999999"
       y2="78.125" />
    <linearGradient
       gradientTransform="translate(17,0)"
       gradientUnits="userSpaceOnUse"
       id="linearGradient7155"
       inkscape:collect="always"
       x1="-5.837441"
       x2="22"
       xlink:href="#linearGradient6939"
       y1="8.048214"
       y2="33.136932" />
    <radialGradient
       cx="28.637825"
       cy="43.934135"
       fx="28.637825"
       fy="43.934135"
       gradientTransform="matrix(1,0,0,0.2982456,0,30.830973)"
       gradientUnits="userSpaceOnUse"
       id="radialGradient7457"
       inkscape:collect="always"
       r="10.076272"
       xlink:href="#linearGradient6969" />
    <linearGradient
       gradientTransform="matrix(0,-1,1,0,-22.968749,49.03125)"
       gradientUnits="userSpaceOnUse"
       id="linearGradient7023"
       inkscape:collect="always"
       x1="15.75"
       x2="4.5266504"
       xlink:href="#linearGradient7223"
       y1="37"
       y2="-0.52360207" />
    <linearGradient
       gradientTransform="matrix(0,-1,1,0,-22.968749,49.03125)"
       gradientUnits="userSpaceOnUse"
       id="linearGradient7025"
       inkscape:collect="always"
       x1="24.375"
       x2="-6.59375"
       xlink:href="#linearGradient7207"
       y1="26"
       y2="26" />
    <radialGradient
       cx="3.031251"
       cy="40.624996"
       fx="3.031251"
       fy="40.624996"
       gradientTransform="matrix(1.450655,0,0,1.2623489,-1.3660485,-18.001669)"
       gradientUnits="userSpaceOnUse"
       id="radialGradient7027"
       inkscape:collect="always"
       r="13"
       xlink:href="#linearGradient7007" />
    <linearGradient
       gradientTransform="matrix(0,-1,1,0,-22.968749,49.03125)"
       gradientUnits="userSpaceOnUse"
       id="linearGradient7029"
       inkscape:collect="always"
       x1="21.625"
       x2="5.2409787"
       xlink:href="#linearGradient7215"
       y1="19.875"
       y2="19.875" />
    <linearGradient
       gradientTransform="matrix(0,-1,1,0,-22.968749,49.03125)"
       gradientUnits="userSpaceOnUse"
       id="linearGradient7031"
       inkscape:collect="always"
       x1="11.22532"
       x2="8.9998951"
       xlink:href="#linearGradient7233"
       y1="26.521631"
       y2="26.521631" />
    <linearGradient
       gradientTransform="matrix(0,-1,1,0,-22.968749,49.03125)"
       gradientUnits="userSpaceOnUse"
       id="linearGradient7034"
       inkscape:collect="always"
       x1="14.625"
       x2="20.625"
       xlink:href="#linearGradient7447"
       y1="28.125"
       y2="10.625" />
    <radialGradient
       cx="28.637825"
       cy="43.934135"
       fx="28.637825"
       fy="43.934135"
       gradientTransform="matrix(1,0,0,0.2982456,0,30.830973)"
       gradientUnits="userSpaceOnUse"
       id="radialGradient7001"
       inkscape:collect="always"
       r="10.076272"
       xlink:href="#linearGradient6969" />
    <linearGradient
       gradientUnits="userSpaceOnUse"
       id="linearGradient6998"
       inkscape:collect="always"
       x1="30"
       x2="31"
       xlink:href="#linearGradient6992"
       y1="8.375"
       y2="39" />
    <radialGradient
       cx="24.5"
       cy="14"
       fx="24.5"
       fy="14"
       gradientTransform="matrix(1,0,0,0.6666667,0,4.6666667)"
       gradientUnits="userSpaceOnUse"
       id="radialGradient7008"
       inkscape:collect="always"
       r="10.5"
       xlink:href="#linearGradient7002" />
  </defs>
  <sodipodi:namedview
     bordercolor="#666666"
     borderlayer="true"
     borderopacity="0.37647059"
     height="32px"
     id="base"
     inkscape:current-layer="layer1"
     inkscape:cx="70.200793"
     inkscape:cy="29.024226"
     inkscape:document-units="px"
     inkscape:grid-points="true"
     inkscape:guide-bbox="true"
     inkscape:pageopacity="0.0"
     inkscape:pageshadow="2"
     inkscape:showpageshadow="false"
     inkscape:window-height="741"
     inkscape:window-width="1039"
     inkscape:window-x="315"
     inkscape:window-y="92"
     inkscape:zoom="2"
     pagecolor="#ffffff"
     showborder="false"
     showgrid="false"
     showguides="false"
     width="32px"
     inkscape:window-maximized="0">
    <sodipodi:guide
       id="guide7161"
       orientation="vertical"
       position="3.875" />
    <sodipodi:guide
       id="guide7241"
       orientation="horizontal"
       position="22" />
    <inkscape:grid
       id="GridFromPre046Settings"
       type="xygrid"
       originx="0px"
       originy="0px"
       spacingx="0.5px"
       spacingy="0.5px"
       color="#0000ff"
       empcolor="#0000ff"
       opacity="0.2"
       empopacity="0.4"
       empspacing="2" />
  </sodipodi:namedview>
  <g
     id="layer1"
     inkscape:groupmode="layer"
     inkscape:label="Livello 1">
    <path
       d="M 34.5,6.5 L 39.5,6.5 C 39.5,5.190363 36.277627,3.8466306 34.5,3.5 L 34.5,6.5 z "
       id="path5940"
       sodipodi:nodetypes="cccc"
       style="fill:#babdb6;fill-rule:evenodd;stroke:#888a85;stroke-width:1px;stroke-linecap:butt;stroke-linejoin:miter;stroke-opacity:1" />
    <rect
       height="2"
       id="rect6988"
       rx="0"
       ry="0"
       style="opacity:1;fill:#eeeeec;fill-opacity:1;fill-rule:evenodd;stroke:#babdb6;stroke-width:0.99999994;stroke-linecap:round;stroke-linejoin:miter;stroke-miterlimit:10;stroke-dasharray:none;stroke-opacity:1"
       width="4"
       x="33.5"
       y="12.5" />
    <path
       d="M 38.714097 43.934135 A 10.076272 3.0052037 0 1 1  18.561553,43.934135 A 10.076272 3.0052037 0 1 1  38.714097 43.934135 z"
       id="path7455"
       sodipodi:cx="28.637825"
       sodipodi:cy="43.934135"
       sodipodi:rx="10.076272"
       sodipodi:ry="3.0052037"
       sodipodi:type="arc"
       style="opacity:0.1;fill:url(#radialGradient7457);fill-opacity:1;fill-rule:evenodd;stroke:none;stroke-width:1;stroke-linecap:round;stroke-linejoin:round;stroke-miterlimit:4;stroke-dasharray:none;stroke-opacity:1"
       transform="matrix(2.2997063,0,0,0.8336219,-43.165305,7.3703375)" />
    <g
       id="g7015"
       transform="translate(20,3)">
      <path
         d="M -14.46875,40.53125 L 20.531251,40.53125 L 20.531251,35.53125 L 16.531251,35.53125 C 16.537461,35.364911 16.531251,35.137012 16.531251,34.96875 C 16.531251,27.51675 10.48325,21.468749 3.03125,21.468749 C -4.42075,21.468749 -10.46875,27.51675 -10.468751,34.96875 C -10.46875,35.137012 -10.44371,35.364911 -10.437499,35.53125 L -14.468749,35.53125 L -14.46875,40.53125 z M -5.46875,34.96875 C -5.46875,30.27675 -1.66075,26.468749 3.03125,26.468749 C 7.723251,26.46875 11.531251,30.27675 11.531251,34.96875 C 11.531251,35.135849 11.540881,35.366437 11.531251,35.53125 L -5.468749,35.53125 C -5.478378,35.366437 -5.46875,35.135849 -5.46875,34.96875 z "
         id="rect7157"
         sodipodi:nodetypes="ccccsssccccssccc"
         style="fill:url(#linearGradient7023);fill-opacity:1;fill-rule:evenodd;stroke:#c4a000;stroke-width:0.99999994;stroke-linecap:round;stroke-linejoin:round;stroke-miterlimit:4;stroke-dasharray:none;stroke-opacity:1" />
      <path
         d="M -13.468749,39.53125 L 19.531251,39.53125 L 19.531251,36.53125 L 16.531251,36.53125 C 16.260539,36.531354 16.001349,36.42171 15.812894,36.227366 C 15.624439,36.033021 15.522819,35.770581 15.531251,35.5 C 15.535263,35.392527 15.531251,35.161616 15.531251,34.96875 C 15.531251,28.057813 9.942188,22.46875 3.031251,22.46875 C -3.879685,22.468751 -9.468748,28.057813 -9.468749,34.96875 C -9.468749,35.037815 -9.446178,35.267556 -9.437499,35.5 C -9.429067,35.770581 -9.530687,36.033021 -9.719142,36.227366 C -9.907597,36.42171 -10.166787,36.531354 -10.437499,36.53125 L -13.468749,36.53125 L -13.468749,39.53125 z "
         id="path7176"
         sodipodi:nodetypes="ccccsssssssccc"
         style="fill:none;fill-opacity:1;fill-rule:evenodd;stroke:url(#linearGradient7025);stroke-width:1;stroke-linecap:round;stroke-linejoin:miter;stroke-miterlimit:4;stroke-opacity:1" />
      <path
         d="M -9.968749,32.875 L -8.562499,33.28125 C -8.486258,32.953184 -8.383835,32.629706 -8.281249,32.3125 L -9.718749,31.90625 L -9.968749,32.875 z M -8.749999,29.4375 L -7.406249,30.25 C -7.24979,29.964996 -7.084544,29.676575 -6.906249,29.40625 L -8.281249,28.5625 L -8.749999,29.4375 z M -6.749999,26.4375 L -5.531249,27.71875 C -5.300173,27.477073 -5.062817,27.25287 -4.812499,27.03125 L -6.062499,25.71875 L -6.749999,26.4375 z M -4.031249,24.09375 L -3.124999,25.78125 C -2.853543,25.615143 -2.566277,25.456821 -2.281249,25.3125 L -3.218749,23.59375 L -4.031249,24.09375 z M -0.874999,22.5625 L -0.374999,24.53125 C -0.074232,24.440522 0.221124,24.379348 0.531251,24.3125 L 0.031251,22.3125 L -0.874999,22.5625 z M 2.562501,24.0625 C 2.718812,24.056335 2.873481,24.03125 3.031251,24.03125 C 3.189021,24.03125 3.34369,24.056335 3.500001,24.0625 L 3.500001,21.96875 L 2.562501,21.96875 L 2.562501,24.0625 z M 5.531251,24.3125 C 5.841378,24.379348 6.136734,24.440522 6.437501,24.53125 L 6.937501,22.5625 L 6.031251,22.3125 L 5.531251,24.3125 z M 8.343751,25.3125 C 8.628779,25.456821 8.916045,25.615143 9.187501,25.78125 L 10.093751,24.09375 L 9.281251,23.59375 L 8.343751,25.3125 z M 10.875001,27.03125 C 11.125319,27.25287 11.362675,27.477073 11.593751,27.71875 L 12.812501,26.4375 L 12.125001,25.71875 L 10.875001,27.03125 z M 12.968751,29.40625 C 13.147046,29.676575 13.312292,29.964996 13.468751,30.25 L 14.812501,29.4375 L 14.343751,28.5625 L 12.968751,29.40625 z M 14.343751,32.3125 C 14.446337,32.629706 14.54876,32.953184 14.625001,33.28125 L 16.031251,32.875 L 15.781251,31.90625 L 14.343751,32.3125 z "
         id="path7243"
         style="opacity:1;fill:url(#radialGradient7027);fill-opacity:1;fill-rule:evenodd;stroke:none;stroke-width:1px;stroke-linecap:butt;stroke-linejoin:miter;stroke-opacity:1" />
      <path
         d="M -6.468749,35.6875 C -6.470215,35.656267 -6.470215,35.624983 -6.468749,35.59375 C -6.483809,35.335971 -6.468749,35.097433 -6.468749,34.96875 C -6.468748,29.735687 -2.201812,25.46875 3.031251,25.46875 C 8.264315,25.468752 12.531251,29.735687 12.531251,34.96875 C 12.531251,35.097429 12.546314,35.335961 12.531251,35.59375 C 12.498155,36.121464 12.060001,36.532234 11.531251,36.53125 L -5.468749,36.53125 C -5.965341,36.537301 -6.391146,36.178028 -6.468749,35.6875 L -6.468749,35.6875 z "
         id="path7194"
         sodipodi:nodetypes="cssssscccc"
         style="fill:none;fill-opacity:1;fill-rule:evenodd;stroke:url(#linearGradient7029);stroke-width:1;stroke-linecap:round;stroke-linejoin:miter;stroke-miterlimit:4;stroke-opacity:1" />
      <path
         d="M -10.968749,40.03125 L -9.968749,40.03125 L -9.968749,38.03125 L -10.968749,38.03125 L -10.968749,40.03125 z M -8.968749,40.03125 L -7.968749,40.03125 L -7.968749,37.03125 L -8.968749,37.03125 L -8.968749,40.03125 z M -6.968749,40.03125 L -5.968749,40.03125 L -5.968749,38.03125 L -6.968749,38.03125 L -6.968749,40.03125 z M -4.968749,40.03125 L -3.968749,40.03125 L -3.968749,37.03125 L -4.968749,37.03125 L -4.968749,40.03125 z M -2.968749,40.03125 L -1.968749,40.03125 L -1.968749,38.03125 L -2.968749,38.03125 L -2.968749,40.03125 z M -0.968749,40.03125 L 0.031251,40.03125 L 0.031251,37.03125 L -0.968749,37.03125 L -0.968749,40.03125 z M 1.031251,40.03125 L 2.031251,40.03125 L 2.031251,38.03125 L 1.031251,38.03125 L 1.031251,40.03125 z M 3.031251,40.03125 L 4.031251,40.03125 L 4.031251,37.03125 L 3.031251,37.03125 L 3.031251,40.03125 z M 5.031251,40.03125 L 6.031251,40.03125 L 6.031251,38.03125 L 5.031251,38.03125 L 5.031251,40.03125 z M 7.031251,40.03125 L 8.031251,40.03125 L 8.031251,37.03125 L 7.031251,37.03125 L 7.031251,40.03125 z M 9.031251,40.03125 L 10.031251,40.03125 L 10.031251,38.03125 L 9.031251,38.03125 L 9.031251,40.03125 z M 11.031251,40.03125 L 12.031251,40.03125 L 12.031251,37.03125 L 11.031251,37.03125 L 11.031251,40.03125 z M 13.031251,40.03125 L 14.031251,40.03125 L 14.031251,38.03125 L 13.031251,38.03125 L 13.031251,40.03125 z M 15.031251,40.03125 L 16.031251,40.03125 L 16.031251,37.03125 L 15.031251,37.03125 L 15.031251,40.03125 z M 17.031251,40.03125 L 18.031251,40.03125 L 18.031251,38.03125 L 17.031251,38.03125 L 17.031251,40.03125 z "
         id="path7231"
         sodipodi:nodetypes="ccccccccccccccccccccccccccccccccccccccccccccccccccccccccccccccccccccccccccc"
         style="opacity:0.2;fill:url(#linearGradient7031);fill-opacity:1;fill-rule:evenodd;stroke:none;stroke-width:1;stroke-linecap:round;stroke-linejoin:miter;stroke-miterlimit:10;stroke-dasharray:none;stroke-opacity:1" />
      <path
         d="M -13.968749,40.03125 L 0.593751,40.03125 C 0.37446,38.63343 0.759709,37.310929 1.468751,36.03125 L -5.468749,36.03125 C -5.712065,36.035538 -5.923138,35.864041 -5.968749,35.625 C -5.970052,35.604187 -5.970052,35.583313 -5.968749,35.5625 C -5.981094,35.351204 -5.968749,35.116641 -5.968749,34.96875 C -5.968748,30.006219 -1.93128,25.96875 3.031251,25.96875 C 4.752389,25.968751 6.35001,26.471025 7.718751,27.3125 C 8.310494,25.803539 8.297826,24.256638 7.093751,22.625 C 5.817424,22.2064 4.44784,21.96875 3.031251,21.96875 C -4.150217,21.968751 -9.968748,27.787281 -9.968749,34.96875 C -9.968748,35.087413 -9.944944,35.300608 -9.937499,35.5 C -9.928876,35.637931 -9.967782,35.774363 -10.062499,35.875 C -10.157217,35.975637 -10.299299,36.031505 -10.437499,36.03125 L -13.968749,36.03125 L -13.968749,40.03125 z "
         id="path7441"
         style="opacity:0.66044778;fill:url(#linearGradient7034);fill-opacity:1;fill-rule:evenodd;stroke:none;stroke-width:0.99999994;stroke-linecap:round;stroke-linejoin:round;stroke-miterlimit:4;stroke-dasharray:none;stroke-opacity:1" />
    </g>
    <path
       d="M 28.5 25.625 L 28.5 31.46875 C 30.350354 33.02837 31.53125 35.36118 31.53125 37.96875 C 31.531249 38.135849 31.54088 38.366437 31.53125 38.53125 L 28.5 38.53125 L 28.5 42.5 L 30.5 42.5 L 30.5 43.53125 L 32.5625 43.53125 L 32.5625 42.5 L 34.5 42.5 L 34.5 30.875 C 33.075536 28.580293 30.989069 26.730777 28.5 25.625 z "
       id="rect7003"
       style="opacity:0.1;fill:#000000;fill-opacity:1;fill-rule:evenodd;stroke:#000000;stroke-width:1;stroke-linecap:round;stroke-linejoin:miter;stroke-miterlimit:4;stroke-dasharray:none;stroke-opacity:1" />
    <path
       d="M 38.714097 43.934135 A 10.076272 3.0052037 0 1 1  18.561553,43.934135 A 10.076272 3.0052037 0 1 1  38.714097 43.934135 z"
       id="path6959"
       sodipodi:cx="28.637825"
       sodipodi:cy="43.934135"
       sodipodi:rx="10.076272"
       sodipodi:ry="3.0052037"
       sodipodi:type="arc"
       style="opacity:0.07;fill:url(#radialGradient6977);fill-opacity:1;fill-rule:evenodd;stroke:none;stroke-width:1;stroke-linecap:round;stroke-linejoin:round;stroke-miterlimit:4;stroke-dasharray:none;stroke-opacity:1"
       transform="matrix(1.4561403,0,0,0.6672439,-12.007411,16.680014)" />
    <path
       d="M 38.714097 43.934135 A 10.076272 3.0052037 0 1 1  18.561553,43.934135 A 10.076272 3.0052037 0 1 1  38.714097 43.934135 z"
       id="path6999"
       sodipodi:cx="28.637825"
       sodipodi:cy="43.934135"
       sodipodi:rx="10.076272"
       sodipodi:ry="3.0052037"
       sodipodi:type="arc"
       style="opacity:0.20641786;fill:url(#radialGradient7001);fill-opacity:1;fill-rule:evenodd;stroke:none;stroke-width:1;stroke-linecap:round;stroke-linejoin:round;stroke-miterlimit:4;stroke-dasharray:none;stroke-opacity:1"
       transform="matrix(0.4298246,0,0,0.4907733,18.091146,24.963427)" />
    <rect
       height="6"
       id="rect5983"
       style="opacity:1;fill:#d3d7cf;fill-opacity:1;fill-rule:evenodd;stroke:#888a85;stroke-width:1;stroke-linecap:round;stroke-linejoin:round;stroke-miterlimit:4;stroke-dasharray:none;stroke-opacity:1"
       width="2.0580583"
       x="29.5"
       y="40.5" />
    <path
       d="M 33.5,0.5 L 26.5,0.5 C 24.465147,0.5 15.472272,2.5277282 15.472272,2.5277282 C 14.60347,3.0293312 14.5,3.9407971 14.5,5.5 L 25.5,5.5 C 25.5,4.2942382 26.271356,4.5 27.5,4.5 L 27.5,41.5 L 33.5,41.5 L 33.5,5.53125 C 35.757372,5.53125 39.5,4.0332335 39.5,2.5 L 33.5,2.5 L 33.5,0.5 z "
       id="path5931"
       sodipodi:nodetypes="cccccccccccc"
       style="fill:url(#linearGradient7155);fill-opacity:1;fill-rule:evenodd;stroke:url(#linearGradient7133);stroke-width:1px;stroke-linecap:butt;stroke-linejoin:miter;stroke-opacity:1" />
    <path
       d="M 28,8 L 28,9 L 31,9 L 31,8 L 28,8 z M 28,10 L 28,11 L 30,11 L 30,10 L 28,10 z M 28,12 L 28,13 L 31,13 L 31,12 L 28,12 z M 28,14 L 28,15 L 30,15 L 30,14 L 28,14 z M 28,16 L 28,17 L 31,17 L 31,16 L 28,16 z M 28,18 L 28,19 L 30,19 L 30,18 L 28,18 z M 28,20 L 28,21 L 31,21 L 31,20 L 28,20 z M 28,22 L 28,23 L 30,23 L 30,22 L 28,22 z M 28,24 L 28,25 L 31,25 L 31,24 L 28,24 z M 28,26 L 28,27 L 30,27 L 30,26 L 28,26 z M 28,28 L 28,29 L 31,29 L 31,28 L 28,28 z M 28,30 L 28,31 L 30,31 L 30,30 L 28,30 z M 28,32 L 28,33 L 31,33 L 31,32 L 28,32 z M 28,34 L 28,35 L 30,35 L 30,34 L 28,34 z M 28,36 L 28,37 L 31,37 L 31,36 L 28,36 z M 28,38 L 28,39 L 30,39 L 30,38 L 28,38 z "
       id="rect6994"
       style="opacity:1;fill:url(#linearGradient6998);fill-opacity:1.0;fill-rule:evenodd;stroke:none;stroke-width:1;stroke-linecap:round;stroke-linejoin:miter;stroke-miterlimit:10;stroke-dasharray:none;stroke-opacity:1" />
    <path
       d="M 26.5,1.46875 C 24.534243,1.6746333 17.734452,2.541974 15.96875,3.375 C 15.489964,3.6248717 15.564849,3.9837677 15.53125,4.53125 L 24.725682,4.4870558 C 25.013054,3.6048007 25.739748,3.4649587 27.035961,3.4649587 C 28.356994,3.4649587 28.46875,3.8774068 28.46875,4.5 L 28.46875,40.53125 L 32.53125,40.53125 L 32.53125,5.53125 C 32.533235,4.9970483 32.965798,4.5644846 33.5,4.5625 C 34.762466,4.619225 37.132816,3.7443895 37.426126,3.46875 L 33.5,3.46875 C 32.965798,3.4667654 32.533235,3.0342017 32.53125,2.5 L 32.53125,1.46875 L 26.5,1.46875 z "
       id="path5947"
       sodipodi:nodetypes="ccccccccccccccc"
       style="opacity:0.77985074;fill:none;fill-opacity:1;fill-rule:evenodd;stroke:url(#linearGradient7153);stroke-width:1px;stroke-linecap:butt;stroke-linejoin:miter;stroke-opacity:1" />
    <path
       d="M 14.5,7.5 C 14.5,9.059203 14.599948,9.967147 15.46875,10.46875 L 26,12.5 C 26.373164,12.685835 26.5,13 26.5,13.5 L 26.5,18.5 L 25.5,18.5 C 24.946,18.5 24.5,18.946 24.5,19.5 C 24.5,20.054 24.946,20.5 25.5,20.5 L 26.5,20.5 L 28.5,20.5 L 28.5,8.5 L 26.5,8.5 C 25.483472,8.501351 25.5,8.404322 25.5,7.5 L 14.5,7.5 z M 32.5,8.5 L 32.5,20.5 L 34.5,20.5 L 34.5,8.5 L 32.5,8.5 z "
       id="rect6990"
       sodipodi:nodetypes="ccccccscccccccccccc"
       style="opacity:1;fill:url(#radialGradient7008);fill-opacity:1.0;fill-rule:evenodd;stroke:#888a85;stroke-width:1;stroke-linecap:round;stroke-linejoin:miter;stroke-miterlimit:10;stroke-dasharray:none;stroke-opacity:1" />
    <g
       id="g6926"
       style="opacity:0.3619403"
       transform="translate(17,0)">
      <path
         d="M -1.484375,8.5 C -1.484375,9.0073099 -1.4131302,9.39605 -1.03125,9.59375 L 9.34375,11.5625 C 9.3754959,11.571365 9.406784,11.581795 9.4375,11.59375 C 9.7848985,11.766754 10.109841,12.07814 10.28125,12.4375 C 10.452659,12.79686 10.5,13.165442 10.5,13.5 L 10.5,9.5 L 9.5,9.5 C 8.5,9.5 7.8425048,9.2679806 7.5994369,8.5 L -1.484375,8.5 z "
         id="path6920"
         sodipodi:nodetypes="cccssccccc"
         style="fill:none;fill-rule:evenodd;stroke:#ffffff;stroke-width:1px;stroke-linecap:butt;stroke-linejoin:miter;stroke-opacity:1" />
      <path
         d="M 10.5,20 L 10.5,12.5"
         id="path6922"
         sodipodi:nodetypes="cc"
         style="fill:none;fill-rule:evenodd;stroke:#ffffff;stroke-width:1px;stroke-linecap:butt;stroke-linejoin:miter;stroke-opacity:1" />
      <path
         d="M 16.5,20 L 16.5,9"
         id="path6924"
         sodipodi:nodetypes="cc"
         style="fill:none;fill-rule:evenodd;stroke:#ffffff;stroke-width:1px;stroke-linecap:butt;stroke-linejoin:miter;stroke-opacity:1" />
    </g>
    <path
       d="M 19,8 L 19,9.03125 C 19,9.5679375 18.567937,10 18.03125,10 L 15.641735,10 C 15.641735,10 15,9.5399631 15,9.03125 L 15,8 L 19,8 z "
       id="rect6965"
       sodipodi:nodetypes="ccccccc"
       style="opacity:1;fill:url(#linearGradient7151);fill-opacity:1;fill-rule:evenodd;stroke:none;stroke-width:1;stroke-linecap:round;stroke-linejoin:miter;stroke-miterlimit:10;stroke-opacity:1" />
    <rect
       height="4"
       id="rect6986"
       rx="0.4826141"
       ry="0.4826141"
       style="opacity:1;fill:#eeeeec;fill-opacity:1;fill-rule:evenodd;stroke:url(#linearGradient7149);stroke-width:1;stroke-linecap:round;stroke-linejoin:miter;stroke-miterlimit:10;stroke-dasharray:none;stroke-opacity:1"
       width="2"
       x="36.5"
       y="11.5" />
    <rect
       height="1"
       id="rect6992"
       style="opacity:0.21268658;fill:#000000;fill-opacity:1;fill-rule:evenodd;stroke:none;stroke-width:1;stroke-linecap:round;stroke-linejoin:miter;stroke-miterlimit:10;stroke-dasharray:none;stroke-opacity:1"
       width="1"
       x="37"
       y="13" />
    <path
       d="M 27,12 L 27,13 L 28,13 L 28,12 L 27,12 z M 27,14 L 27,15 L 28,15 L 28,14 L 27,14 z M 27,16 L 27,17 L 28,17 L 28,16 L 27,16 z M 27,18 L 27,19 L 28,19 L 28,18 L 27,18 z "
       id="path7041"
       sodipodi:nodetypes="cccccccccccccccccccc"
       style="opacity:0.15671644;fill:url(#linearGradient7147);fill-opacity:1;fill-rule:evenodd;stroke:none;stroke-width:1;stroke-linecap:round;stroke-linejoin:miter;stroke-miterlimit:10;stroke-dasharray:none;stroke-opacity:1" />
    <path
       d="M 33,12 L 33,13 L 34,13 L 34,12 L 33,12 z M 33,14 L 33,15 L 34,15 L 34,14 L 33,14 z M 33,16 L 33,17 L 34,17 L 34,16 L 33,16 z M 33,18 L 33,19 L 34,19 L 34,18 L 33,18 z "
       id="path7045"
       sodipodi:nodetypes="cccccccccccccccccccc"
       style="opacity:0.1;fill:url(#linearGradient7145);fill-opacity:1;fill-rule:evenodd;stroke:none;stroke-width:1;stroke-linecap:round;stroke-linejoin:miter;stroke-miterlimit:10;stroke-dasharray:none;stroke-opacity:1" />
    <path
       d="M 25.5,19.5 L 27.5,19.5"
       id="path6965"
       style="opacity:0.53731342;fill:none;fill-opacity:1;fill-rule:evenodd;stroke:url(#linearGradient7143);stroke-width:1px;stroke-linecap:round;stroke-linejoin:miter;stroke-opacity:1" />
    <path
       d="M 27.5,9.5 L 26,9.5 C 25.5,9.5 24.687825,8.9889515 24.610485,8.5 L 15.515625,8.5"
       id="path6989"
       sodipodi:nodetypes="cccc"
       style="opacity:0.53358209;fill:none;fill-rule:evenodd;stroke:#ffffff;stroke-width:1px;stroke-linecap:round;stroke-linejoin:miter;stroke-opacity:1" />
    <path
       d="M 37.426126,3.46875 L 33.5,3.46875 C 32.965798,3.4667654 32.533235,3.0342017 32.53125,2.5 L 32.53125,1.46875 L 26.5,1.46875 C 24.534243,1.6746333 17.734452,2.541974 15.96875,3.375"
       id="path7135"
       sodipodi:nodetypes="cccccc"
       style="opacity:1;fill:none;fill-opacity:1;fill-rule:evenodd;stroke:url(#linearGradient7141);stroke-width:1px;stroke-linecap:round;stroke-linejoin:miter;stroke-opacity:1" />
    <path
       d="M 19,5 L 19,3.96875 C 19,3.4320625 18.567937,3 18.03125,3 L 15.610485,3 C 15.610485,3 15,3.4600369 15,3.96875 L 15,5 L 19,5 z "
       id="path6968"
       sodipodi:nodetypes="ccccccc"
       style="opacity:1;fill:url(#linearGradient7139);fill-opacity:1;fill-rule:evenodd;stroke:none;stroke-width:1;stroke-linecap:round;stroke-linejoin:miter;stroke-miterlimit:10;stroke-opacity:1" />
    <rect
       height="1"
       id="rect7011"
       style="opacity:0.53358208;fill:#ffffff;fill-opacity:1;fill-rule:evenodd;stroke:none;stroke-width:1;stroke-linecap:round;stroke-linejoin:miter;stroke-miterlimit:4;stroke-dasharray:none;stroke-opacity:1"
       width="1"
       x="33"
       y="9" />
  </g>
</svg>
